<svg xmlns="http://www.w3.org/2000/svg" viewBox="0 0 3840 1933" width="3840" height="1933">
  <!-- Global Background -->
  <rect width="3840" height="1933" fill="#ffffff" />

  <!-- Left Panel: Offline Graph Construction -->
  <rect x="40" y="40" width="1450" height="1850" rx="30" stroke="#e5e7eb" stroke-width="8" stroke-dasharray="25,25" fill="none" />
  <text x="765" y="150" font-family="sans-serif" font-size="75" fill="black" text-anchor="middle">Offline Graph Construction</text>

  <!-- Photo Backgrounds (Black boxes behind placeholders) -->
  <rect x="155" y="230" width="250" height="185" fill="black" />
  <rect x="440" y="230" width="250" height="185" fill="black" />
  <rect x="790" y="230" width="250" height="185" fill="black" />
  <rect x="1080" y="230" width="250" height="185" fill="black" />

  <!-- Placeholders for Left Panel Images -->
  <g id="AF10">
    <rect x="155" y="230" width="250" height="185" fill="#808080" stroke="black" stroke-width="2" />
    <text x="280" y="322" font-family="sans-serif" font-size="24" fill="white" text-anchor="middle" dominant-baseline="middle">&lt;AF&gt;10</text>
  </g>
  <g id="AF09">
    <rect x="445" y="240" width="40" height="160" fill="#808080" stroke="black" stroke-width="2" />
    <text x="465" y="320" font-family="sans-serif" font-size="14" fill="white" text-anchor="middle" dominant-baseline="middle" transform="rotate(-90 465 320)">&lt;AF&gt;09</text>
  </g>
  <g id="AF05">
    <rect x="500" y="240" width="40" height="160" fill="#808080" stroke="black" stroke-width="2" />
    <text x="520" y="320" font-family="sans-serif" font-size="14" fill="white" text-anchor="middle" dominant-baseline="middle" transform="rotate(-90 520 320)">&lt;AF&gt;05</text>
  </g>
  <g id="AF04">
    <rect x="555" y="240" width="40" height="160" fill="#808080" stroke="black" stroke-width="2" />
    <text x="575" y="320" font-family="sans-serif" font-size="14" fill="white" text-anchor="middle" dominant-baseline="middle" transform="rotate(-90 575 320)">&lt;AF&gt;04</text>
  </g>
  <g id="AF03">
    <rect x="610" y="240" width="40" height="160" fill="#808080" stroke="black" stroke-width="2" />
    <text x="630" y="320" font-family="sans-serif" font-size="14" fill="white" text-anchor="middle" dominant-baseline="middle" transform="rotate(-90 630 320)">&lt;AF&gt;03</text>
  </g>
  <g id="AF06">
    <rect x="800" y="230" width="40" height="70" fill="#808080" stroke="black" stroke-width="2" />
    <text x="820" y="265" font-family="sans-serif" font-size="14" fill="white" text-anchor="middle" dominant-baseline="middle">&lt;AF&gt;06</text>
  </g>
  <g id="AF07">
    <rect x="880" y="250" width="70" height="150" fill="#808080" stroke="black" stroke-width="2" />
    <text x="915" y="325" font-family="sans-serif" font-size="16" fill="white" text-anchor="middle" dominant-baseline="middle">&lt;AF&gt;07</text>
  </g>
  <g id="AF02">
    <rect x="1160" y="230" width="80" height="185" fill="#808080" stroke="black" stroke-width="2" />
    <text x="1200" y="322" font-family="sans-serif" font-size="20" fill="white" text-anchor="middle" dominant-baseline="middle">&lt;AF&gt;02</text>
  </g>

  <!-- Ellipsis -->
  <text x="740" y="340" font-family="sans-serif" font-size="70" font-weight="bold" fill="black" text-anchor="middle">...</text>

  <!-- Subtitles Label -->
  <rect x="285" y="450" width="930" height="90" rx="45" fill="#fce4d6" />
  <text x="750" y="515" font-family="sans-serif" font-size="50" fill="black" text-anchor="middle">Subtitles</text>

  <!-- Down Arrow 1 -->
  <polygon points="710,560 790,560 790,610 830,610 750,680 670,610 710,610" fill="#d9d9d9" />

  <!-- LVLM Box -->
  <rect x="150" y="710" width="1190" height="165" rx="20" fill="#dbeafe" stroke="#93c5fd" stroke-width="4" />
  <text x="745" y="815" font-family="sans-serif" font-size="65" fill="black" text-anchor="middle">LVLM</text>

  <!-- JSON Text -->
  <text x="265" y="950" font-family="monospace" font-size="45" fill="black">[{"entity": "", "description": ""},</text>
  <text x="745" y="1010" font-family="monospace" font-size="45" fill="black" text-anchor="middle">...</text>
  <text x="265" y="1070" font-family="monospace" font-size="45" fill="black"> {"entity": "", "description": ""}]</text>

  <!-- Entity Merging Label -->
  <rect x="150" y="1130" width="1190" height="90" fill="#fce4d6" />
  <text x="745" y="1195" font-family="sans-serif" font-size="45" fill="black" text-anchor="middle">Entity Merging and Node Connection</text>

  <!-- Graph Area -->
  <g id="graph-edges" stroke="#e5e7eb" stroke-width="6" stroke-dasharray="15,15" fill="none">
    <line x1="200" y1="1400" x2="450" y2="1350" />
    <line x1="200" y1="1400" x2="270" y2="1470" />
    <line x1="450" y1="1350" x2="270" y2="1470" />
    <line x1="450" y1="1350" x2="640" y2="1410" />
    <line x1="270" y1="1470" x2="340" y2="1610" />
    <line x1="340" y1="1610" x2="640" y2="1410" />
    <line x1="640" y1="1410" x2="550" y2="1600" />
    <line x1="640" y1="1410" x2="880" y2="1460" />
    <line x1="880" y1="1460" x2="760" y2="1580" />
    <line x1="880" y1="1460" x2="970" y2="1580" />
    <line x1="880" y1="1460" x2="1090" y2="1350" />
    <line x1="1090" y1="1350" x2="1030" y2="1480" />
    <line x1="1090" y1="1350" x2="1270" y2="1400" />
    <line x1="1030" y1="1480" x2="970" y2="1580" />
    <line x1="1030" y1="1480" x2="1220" y2="1610" />
    <line x1="1270" y1="1400" x2="1220" y2="1610" />
  </g>
  <g id="graph-nodes">
    <!-- Green Squares -->
    <rect x="170" y="1370" width="60" height="60" rx="10" fill="#dcfce7" stroke="#86efac" stroke-width="6" />
    <rect x="420" y="1320" width="60" height="60" rx="10" fill="#dcfce7" stroke="#86efac" stroke-width="6" />
    <rect x="610" y="1380" width="60" height="60" rx="10" fill="#dcfce7" stroke="#86efac" stroke-width="6" />
    <rect x="1060" y="1320" width="60" height="60" rx="10" fill="#dcfce7" stroke="#86efac" stroke-width="6" />
    <rect x="730" y="1550" width="60" height="60" rx="10" fill="#dcfce7" stroke="#86efac" stroke-width="6" />
    <rect x="1190" y="1580" width="60" height="60" rx="10" fill="#dcfce7" stroke="#86efac" stroke-width="6" />
    <!-- Blue Squares -->
    <rect x="520" y="1570" width="60" height="60" fill="#e0f2fe" stroke="#7dd3fc" stroke-width="6" />
    <rect x="850" y="1430" width="60" height="60" fill="#e0f2fe" stroke="#7dd3fc" stroke-width="6" />
    <rect x="1240" y="1370" width="60" height="60" fill="#e0f2fe" stroke="#7dd3fc" stroke-width="6" />
    <!-- Pink Triangles -->
    <polygon points="270,1430 235,1490 305,1490" fill="#fae8ff" stroke="#f9a8d4" stroke-width="6" />
    <polygon points="970,1540 935,1600 1005,1600" fill="#fae8ff" stroke="#f9a8d4" stroke-width="6" />
    <!-- Blue Triangles -->
    <polygon points="340,1570 305,1630 375,1630" fill="#e0f2fe" stroke="#7dd3fc" stroke-width="6" />
    <polygon points="1030,1440 995,1500 1065,1500" fill="#e0f2fe" stroke="#7dd3fc" stroke-width="6" />
  </g>

  <!-- Legend -->
  <text x="170" y="1820" font-family="sans-serif" font-size="40" fill="black">Video Clip</text>
  <rect x="440" y="1775" width="60" height="60" rx="10" fill="#dcfce7" stroke="#86efac" stroke-width="6" />
  <text x="640" y="1820" font-family="sans-serif" font-size="40" fill="black">Entities (</text>
  <polygon points="910,1775 875,1835 945,1835" fill="#fae8ff" stroke="#f9a8d4" stroke-width="6" />
  <rect x="1010" y="1775" width="60" height="60" fill="#e0f2fe" stroke="#7dd3fc" stroke-width="6" />
  <polygon points="1160,1775 1125,1835 1195,1835" fill="#e0f2fe" stroke="#7dd3fc" stroke-width="6" />
  <text x="1270" y="1820" font-family="sans-serif" font-size="40" fill="black">)</text>

  <!-- Right Panel: Retrieval-Reasoning Augmented Generation -->
  <rect x="1560" y="40" width="2240" height="1850" rx="30" stroke="#e5e7eb" stroke-width="8" stroke-dasharray="25,25" fill="none" />
  <text x="2680" y="150" font-family="sans-serif" font-size="75" fill="black" text-anchor="middle">Retrieval-Reasoning Augmented Generation</text>

  <!-- Question Area -->
  <g id="AF01">
    <rect x="1665" y="200" width="75" height="75" fill="#808080" stroke="black" stroke-width="2" />
    <text x="1702" y="237" font-family="sans-serif" font-size="20" fill="white" text-anchor="middle" dominant-baseline="middle">&lt;AF&gt;01</text>
  </g>
  <text x="1750" y="250" font-family="sans-serif" font-size="45" font-weight="bold" fill="black">Question:</text>
  <text x="1980" y="250" font-family="sans-serif" font-size="45" fill="black">Please identify the option that corresponds to the order of events as they</text>
  <text x="1665" y="320" font-family="sans-serif" font-size="45" fill="black">occur in the video. [Zumba, clean and jerk, milking cow, playing trombone]</text>

  <!-- Small Down Arrows -->
  <polygon points="2080,360 2140,360 2140,390 2160,390 2110,430 2060,390 2080,390" fill="#fce4d6" />
  <polygon points="3130,360 3190,360 3190,390 3210,390 3160,430 3110,390 3130,390" fill="#fce4d6" />

  <!-- Query Keywords Extraction -->
  <text x="2100" y="490" font-family="sans-serif" font-size="50" font-weight="bold" fill="#0284c7" text-anchor="middle">Query Keywords Extraction</text>
  <text x="2100" y="560" font-family="monospace" font-size="45" fill="black" text-anchor="middle">["zumba", "clean", "milking</text>
  <text x="2100" y="620" font-family="monospace" font-size="45" fill="black" text-anchor="middle">cow", "playing trombone"]</text>

  <!-- Structured Query Refinement -->
  <text x="3150" y="490" font-family="sans-serif" font-size="50" font-weight="bold" fill="#0284c7" text-anchor="middle">Strutured Query Refinement</text>
  <text x="3150" y="560" font-family="monospace" font-size="45" fill="black" text-anchor="middle">Q1: Is 'zumba' shown in the video?</text>
  <text x="3150" y="600" font-family="monospace" font-size="45" fill="black" text-anchor="middle">...</text>
  <text x="3150" y="640" font-family="monospace" font-size="45" fill="black" text-anchor="middle">Q4: Is 'trombone' shown in the video?</text>

  <!-- Top Green Numbers Array -->
  <g id="top-array">
    <rect x="1885" y="705" width="50" height="50" rx="10" fill="#dcfce7" stroke="#4ade80" stroke-width="4" />
    <text x="1910" y="742" font-family="sans-serif" font-size="35" fill="#166534" text-anchor="middle">3</text>
    <rect x="1965" y="705" width="50" height="50" rx="10" fill="#dcfce7" stroke="#4ade80" stroke-width="4" />
    <text x="1990" y="742" font-family="sans-serif" font-size="35" fill="#166534" text-anchor="middle">4</text>
    <rect x="2045" y="705" width="50" height="50" rx="10" fill="#dcfce7" stroke="#4ade80" stroke-width="4" />
    <text x="2070" y="742" font-family="sans-serif" font-size="35" fill="#166534" text-anchor="middle">5</text>
    <rect x="2135" y="705" width="50" height="50" rx="10" fill="#dcfce7" stroke="#4ade80" stroke-width="4" />
    <text x="2160" y="742" font-family="sans-serif" font-size="35" fill="#166534" text-anchor="middle">11</text>
    <rect x="2225" y="705" width="50" height="50" rx="10" fill="#dcfce7" stroke="#4ade80" stroke-width="4" />
    <text x="2250" y="742" font-family="sans-serif" font-size="35" fill="#166534" text-anchor="middle">13</text>
  </g>

  <!-- Arrows to Matrix -->
  <!-- From Green Numbers -->
  <polygon points="2050,770 2110,770 2110,800 2130,800 2080,840 2030,800 2050,800" fill="#fce4d6" />
  <!-- From Right Column -->
  <polyline points="3150,680 3150,820 2300,820" stroke="#e5e7eb" stroke-width="20" fill="none" />
  <polygon points="2300,790 2300,850 2240,820" fill="#e5e7eb" />

  <!-- Big Cross-Panel Arrow -->
  <polyline points="1370,1450 1520,1450 1520,750 1620,750" stroke="#e5e7eb" stroke-width="20" fill="none" />
  <polygon points="1620,720 1620,780 1680,750" fill="#e5e7eb" />

  <!-- Graph-based Clip Retrieval Text -->
  <text x="1600" y="790" font-family="sans-serif" font-size="30" fill="black">Graph-based</text>
  <text x="1600" y="835" font-family="sans-serif" font-size="30" fill="black">Clip Retrieval</text>

  <!-- Matrix Table -->
  <g id="matrix">
    <!-- Headers -->
    <rect x="1750" y="910" width="170" height="70" fill="#7dd3fc" />
    <rect x="1924" y="910" width="136" height="70" fill="#7dd3fc" />
    <rect x="2064" y="910" width="136" height="70" fill="#7dd3fc" />
    <rect x="2204" y="910" width="136" height="70" fill="#7dd3fc" />
    <rect x="2344" y="910" width="136" height="70" fill="#7dd3fc" />
    
    <text x="1835" y="960" font-family="sans-serif" font-size="40" font-weight="bold" fill="white" text-anchor="middle">Clip</text>
    <text x="1992" y="960" font-family="sans-serif" font-size="40" font-weight="bold" fill="white" text-anchor="middle">Q1</text>
    <text x="2132" y="960" font-family="sans-serif" font-size="40" font-weight="bold" fill="white" text-anchor="middle">Q2</text>
    <text x="2272" y="960" font-family="sans-serif" font-size="40" font-weight="bold" fill="white" text-anchor="middle">Q3</text>
    <text x="2412" y="960" font-family="sans-serif" font-size="40" font-weight="bold" fill="white" text-anchor="middle">Q4</text>

    <!-- Row 1 -->
    <rect x="1750" y="984" width="170" height="66" fill="#f3f4f6" />
    <rect x="1924" y="984" width="136" height="66" fill="#f3f4f6" />
    <rect x="2064" y="984" width="136" height="66" fill="#f3f4f6" />
    <rect x="2204" y="984" width="136" height="66" fill="#f3f4f6" />
    <rect x="2344" y="984" width="136" height="66" fill="#f3f4f6" />
    <text x="1835" y="1030" font-family="sans-serif" font-size="40" fill="black" text-anchor="middle">3</text>
    <!-- Cross Q1 -->
    <g transform="translate(1992, 1017)"><line x1="-15" y1="-15" x2="15" y2="15" stroke="#ef4444" stroke-width="8" stroke-linecap="round"/><line x1="-15" y1="15" x2="15" y2="-15" stroke="#ef4444" stroke-width="8" stroke-linecap="round"/></g>
    <!-- Cross Q2 -->
    <g transform="translate(2132, 1017)"><line x1="-15" y1="-15" x2="15" y2="15" stroke="#ef4444" stroke-width="8" stroke-linecap="round"/><line x1="-15" y1="15" x2="15" y2="-15" stroke="#ef4444" stroke-width="8" stroke-linecap="round"/></g>
    <!-- Check Q3 -->
    <g transform="translate(2272, 1017)"><path d="M -15,0 L -5,15 L 20,-20" stroke="#22c55e" stroke-width="8" fill="none" stroke-linecap="round" stroke-linejoin="round"/></g>
    <!-- Cross Q4 -->
    <g transform="translate(2412, 1017)"><line x1="-15" y1="-15" x2="15" y2="15" stroke="#ef4444" stroke-width="8" stroke-linecap="round"/><line x1="-15" y1="15" x2="15" y2="-15" stroke="#ef4444" stroke-width="8" stroke-linecap="round"/></g>

    <!-- Row 2 -->
    <rect x="1750" y="1054" width="170" height="66" fill="#f3f4f6" />
    <rect x="1924" y="1054" width="136" height="66" fill="#f3f4f6" />
    <rect x="2064" y="1054" width="136" height="66" fill="#f3f4f6" />
    <rect x="2204" y="1054" width="136" height="66" fill="#f3f4f6" />
    <rect x="2344" y="1054" width="136" height="66" fill="#f3f4f6" />
    <text x="1835" y="1100" font-family="sans-serif" font-size="40" fill="black" text-anchor="middle">4</text>
    <!-- Check Q1 -->
    <g transform="translate(1992, 1087)"><path d="M -15,0 L -5,15 L 20,-20" stroke="#22c55e" stroke-width="8" fill="none" stroke-linecap="round" stroke-linejoin="round"/></g>
    <!-- Cross Q2 -->
    <g transform="translate(2132, 1087)"><line x1="-15" y1="-15" x2="15" y2="15" stroke="#ef4444" stroke-width="8" stroke-linecap="round"/><line x1="-15" y1="15" x2="15" y2="-15" stroke="#ef4444" stroke-width="8" stroke-linecap="round"/></g>
    <!-- Check Q3 -->
    <g transform="translate(2272, 1087)"><path d="M -15,0 L -5,15 L 20,-20" stroke="#22c55e" stroke-width="8" fill="none" stroke-linecap="round" stroke-linejoin="round"/></g>
    <!-- Cross Q4 -->
    <g transform="translate(2412, 1087)"><line x1="-15" y1="-15" x2="15" y2="15" stroke="#ef4444" stroke-width="8" stroke-linecap="round"/><line x1="-15" y1="15" x2="15" y2="-15" stroke="#ef4444" stroke-width="8" stroke-linecap="round"/></g>

    <!-- Row 3 -->
    <rect x="1750" y="1124" width="170" height="66" fill="#f3f4f6" />
    <rect x="1924" y="1124" width="136" height="66" fill="#f3f4f6" />
    <rect x="2064" y="1124" width="136" height="66" fill="#f3f4f6" />
    <rect x="2204" y="1124" width="136" height="66" fill="#f3f4f6" />
    <rect x="2344" y="1124" width="136" height="66" fill="#f3f4f6" />
    <text x="1835" y="1170" font-family="sans-serif" font-size="40" fill="black" text-anchor="middle">5</text>
    <!-- Cross Q1 -->
    <g transform="translate(1992, 1157)"><line x1="-15" y1="-15" x2="15" y2="15" stroke="#ef4444" stroke-width="8" stroke-linecap="round"/><line x1="-15" y1="15" x2="15" y2="-15" stroke="#ef4444" stroke-width="8" stroke-linecap="round"/></g>
    <!-- Cross Q2 -->
    <g transform="translate(2132, 1157)"><line x1="-15" y1="-15" x2="15" y2="15" stroke="#ef4444" stroke-width="8" stroke-linecap="round"/><line x1="-15" y1="15" x2="15" y2="-15" stroke="#ef4444" stroke-width="8" stroke-linecap="round"/></g>
    <!-- Cross Q3 -->
    <g transform="translate(2272, 1157)"><line x1="-15" y1="-15" x2="15" y2="15" stroke="#ef4444" stroke-width="8" stroke-linecap="round"/><line x1="-15" y1="15" x2="15" y2="-15" stroke="#ef4444" stroke-width="8" stroke-linecap="round"/></g>
    <!-- Cross Q4 -->
    <g transform="translate(2412, 1157)"><line x1="-15" y1="-15" x2="15" y2="15" stroke="#ef4444" stroke-width="8" stroke-linecap="round"/><line x1="-15" y1="15" x2="15" y2="-15" stroke="#ef4444" stroke-width="8" stroke-linecap="round"/></g>

    <!-- Row 4 -->
    <rect x="1750" y="1194" width="170" height="66" fill="#f3f4f6" />
    <rect x="1924" y="1194" width="136" height="66" fill="#f3f4f6" />
    <rect x="2064" y="1194" width="136" height="66" fill="#f3f4f6" />
    <rect x="2204" y="1194" width="136" height="66" fill="#f3f4f6" />
    <rect x="2344" y="1194" width="136" height="66" fill="#f3f4f6" />
    <text x="1835" y="1240" font-family="sans-serif" font-size="40" fill="black" text-anchor="middle">11</text>
    <!-- Cross Q1 -->
    <g transform="translate(1992, 1227)"><line x1="-15" y1="-15" x2="15" y2="15" stroke="#ef4444" stroke-width="8" stroke-linecap="round"/><line x1="-15" y1="15" x2="15" y2="-15" stroke="#ef4444" stroke-width="8" stroke-linecap="round"/></g>
    <!-- Check Q2 -->
    <g transform="translate(2132, 1227)"><path d="M -15,0 L -5,15 L 20,-20" stroke="#22c55e" stroke-width="8" fill="none" stroke-linecap="round" stroke-linejoin="round"/></g>
    <!-- Cross Q3 -->
    <g transform="translate(2272, 1227)"><line x1="-15" y1="-15" x2="15" y2="15" stroke="#ef4444" stroke-width="8" stroke-linecap="round"/><line x1="-15" y1="15" x2="15" y2="-15" stroke="#ef4444" stroke-width="8" stroke-linecap="round"/></g>
    <!-- Cross Q4 -->
    <g transform="translate(2412, 1227)"><line x1="-15" y1="-15" x2="15" y2="15" stroke="#ef4444" stroke-width="8" stroke-linecap="round"/><line x1="-15" y1="15" x2="15" y2="-15" stroke="#ef4444" stroke-width="8" stroke-linecap="round"/></g>

    <!-- Row 5 -->
    <rect x="1750" y="1264" width="170" height="66" fill="#f3f4f6" />
    <rect x="1924" y="1264" width="136" height="66" fill="#f3f4f6" />
    <rect x="2064" y="1264" width="136" height="66" fill="#f3f4f6" />
    <rect x="2204" y="1264" width="136" height="66" fill="#f3f4f6" />
    <rect x="2344" y="1264" width="136" height="66" fill="#f3f4f6" />
    <text x="1835" y="1310" font-family="sans-serif" font-size="40" fill="black" text-anchor="middle">13</text>
    <!-- Cross Q1 -->
    <g transform="translate(1992, 1297)"><line x1="-15" y1="-15" x2="15" y2="15" stroke="#ef4444" stroke-width="8" stroke-linecap="round"/><line x1="-15" y1="15" x2="15" y2="-15" stroke="#ef4444" stroke-width="8" stroke-linecap="round"/></g>
    <!-- Cross Q2 -->
    <g transform="translate(2132, 1297)"><line x1="-15" y1="-15" x2="15" y2="15" stroke="#ef4444" stroke-width="8" stroke-linecap="round"/><line x1="-15" y1="15" x2="15" y2="-15" stroke="#ef4444" stroke-width="8" stroke-linecap="round"/></g>
    <!-- Cross Q3 -->
    <g transform="translate(2272, 1297)"><line x1="-15" y1="-15" x2="15" y2="15" stroke="#ef4444" stroke-width="8" stroke-linecap="round"/><line x1="-15" y1="15" x2="15" y2="-15" stroke="#ef4444" stroke-width="8" stroke-linecap="round"/></g>
    <!-- Check Q4 -->
    <g transform="translate(2412, 1297)"><path d="M -15,0 L -5,15 L 20,-20" stroke="#22c55e" stroke-width="8" fill="none" stroke-linecap="round" stroke-linejoin="round"/></g>
  </g>

  <!-- Arrow from Matrix to Info Aggr -->
  <polygon points="2580,1100 2640,1100 2640,1070 2690,1120 2640,1170 2640,1140 2580,1140" fill="#fce4d6" />

  <!-- Information Aggregation -->
  <text x="3200" y="980" font-family="sans-serif" font-size="50" font-weight="bold" fill="#0284c7" text-anchor="middle">Information Aggregation</text>
  <rect x="2780" y="1030" width="840" height="330" fill="none" stroke="#c2410c" stroke-width="6" stroke-dasharray="15,15" />
  <text x="2810" y="1110" font-family="monospace" font-size="45" fill="black">Milking cow is shown first,</text>
  <text x="2810" y="1190" font-family="monospace" font-size="45" fill="black">followed by zumba, then</text>
  <text x="2810" y="1270" font-family="monospace" font-size="45" fill="black">clean, and finally playing</text>
  <text x="2810" y="1350" font-family="monospace" font-size="45" fill="black">trombone.</text>

  <!-- Refined Clips -->
  <text x="2085" y="1460" font-family="sans-serif" font-size="35" fill="black" text-anchor="middle">Refined Clips</text>
  <g id="bottom-array">
    <rect x="1925" y="1475" width="50" height="50" rx="10" fill="#dcfce7" stroke="#4ade80" stroke-width="4" />
    <text x="1950" y="1512" font-family="sans-serif" font-size="35" fill="#166534" text-anchor="middle">3</text>
    <rect x="2005" y="1475" width="50" height="50" rx="10" fill="#dcfce7" stroke="#4ade80" stroke-width="4" />
    <text x="2030" y="1512" font-family="sans-serif" font-size="35" fill="#166534" text-anchor="middle">4</text>
    <rect x="2105" y="1475" width="50" height="50" rx="10" fill="#dcfce7" stroke="#4ade80" stroke-width="4" />
    <text x="2130" y="1512" font-family="sans-serif" font-size="35" fill="#166534" text-anchor="middle">11</text>
    <rect x="2195" y="1475" width="50" height="50" rx="10" fill="#dcfce7" stroke="#4ade80" stroke-width="4" />
    <text x="2220" y="1512" font-family="sans-serif" font-size="35" fill="#166534" text-anchor="middle">13</text>
  </g>

  <!-- Big Down Arrow to LVLM -->
  <polygon points="3160,1400 3240,1400 3240,1480 3280,1480 3200,1560 3120,1480 3160,1480" fill="#e2e8f0" />

  <!-- LVLM Box Right Panel -->
  <rect x="1665" y="1630" width="2060" height="140" rx="20" fill="#dbeafe" stroke="#93c5fd" stroke-width="4" />
  <text x="2695" y="1720" font-family="sans-serif" font-size="65" fill="black" text-anchor="middle">LVLM</text>

  <!-- Answer Area -->
  <g id="AF08">
    <rect x="1665" y="1795" width="100" height="80" fill="#808080" stroke="black" stroke-width="2" />
    <text x="1715" y="1835" font-family="sans-serif" font-size="20" fill="white" text-anchor="middle" dominant-baseline="middle">&lt;AF&gt;08</text>
  </g>
  <text x="1800" y="1850" font-family="sans-serif" font-size="45" fill="black">Answer: milking cow --&gt; zumba --&gt; clean and jerk --&gt; playing trombone</text>

</svg>