<?xml version="1.0" encoding="UTF-8"?>
<svg xmlns="http://www.w3.org/2000/svg" width="1600" height="738" viewBox="0 0 1600 738">
  <defs>
    <marker id="arrow-gray" markerWidth="10" markerHeight="10" refX="9" refY="5" orient="auto" markerUnits="strokeWidth">
      <path d="M0,0 L10,5 L0,10 z" fill="#5b5b5b" />
    </marker>
    <marker id="arrow-green" markerWidth="10" markerHeight="10" refX="9" refY="5" orient="auto" markerUnits="strokeWidth">
      <path d="M0,0 L10,5 L0,10 z" fill="#99c77c" />
    </marker>
    <marker id="arrow-orange" markerWidth="10" markerHeight="10" refX="9" refY="5" orient="auto" markerUnits="strokeWidth">
      <path d="M0,0 L10,5 L0,10 z" fill="#ffad7a" />
    </marker>
    <marker id="arrow-pink" markerWidth="10" markerHeight="10" refX="9" refY="5" orient="auto" markerUnits="strokeWidth">
      <path d="M0,0 L10,5 L0,10 z" fill="#ff9da0" />
    </marker>
    <marker id="arrow-blue" markerWidth="10" markerHeight="10" refX="9" refY="5" orient="auto" markerUnits="strokeWidth">
      <path d="M0,0 L10,5 L0,10 z" fill="#7fb0d6" />
    </marker>
  </defs>

  <rect x="0" y="0" width="1600" height="738" fill="#ffffff" />

  
  <rect x="8" y="17" width="543" height="661" rx="28" ry="28" fill="none" stroke="#595959" stroke-width="3.2" stroke-dasharray="3 5" stroke-linecap="round" />
  <rect x="573" y="17" width="490" height="661" rx="28" ry="28" fill="none" stroke="#595959" stroke-width="3.2" stroke-dasharray="3 5" stroke-linecap="round" />
  <rect x="1088" y="17" width="503" height="661" rx="28" ry="28" fill="none" stroke="#595959" stroke-width="3.2" stroke-dasharray="3 5" stroke-linecap="round" />

  
  <text x="91" y="49" font-family="Times New Roman, serif" font-size="24" font-style="italic" font-weight="700" text-anchor="middle">Item<tspan dy="5" font-size="15">i</tspan></text>
  <line x1="91" y1="53" x2="91" y2="75" stroke="#666" stroke-width="3" marker-end="url(#arrow-gray)" />

  <rect x="20" y="79" width="144" height="66" rx="10" fill="#eeeeee" stroke="#5d5d5d" stroke-width="3" />
  <text x="92" y="108" font-family="Times New Roman, serif" font-size="23" text-anchor="middle">Raw</text>
  <text x="92" y="134" font-family="Times New Roman, serif" font-size="23" text-anchor="middle">Information</text>
  <line x1="164" y1="113" x2="201" y2="113" stroke="#666" stroke-width="3" marker-end="url(#arrow-gray)" />

  <line x1="260" y1="113" x2="301" y2="113" stroke="#666" stroke-width="3" marker-end="url(#arrow-gray)" />
  <rect x="301" y="43" width="105" height="161" fill="none" stroke="#585858" stroke-width="3" stroke-dasharray="3 5" />
  <rect x="314" y="51" width="78" height="42" rx="6" fill="#dce6f8" stroke="#909090" stroke-width="1.6" stroke-dasharray="9 6" />
  <rect x="314" y="101" width="78" height="42" rx="6" fill="#e7e2f2" stroke="#909090" stroke-width="1.6" stroke-dasharray="9 6" />
  <rect x="314" y="151" width="78" height="42" rx="6" fill="#fff3cc" stroke="#909090" stroke-width="1.6" stroke-dasharray="9 6" />
  <text x="353" y="78" font-family="Times New Roman, serif" font-size="19" font-weight="700" text-anchor="middle">ASR</text>
  <text x="353" y="128" font-family="Times New Roman, serif" font-size="19" font-weight="700" text-anchor="middle">OCR</text>
  <text x="353" y="179" font-family="Times New Roman, serif" font-size="19" font-weight="700" text-anchor="middle">Text</text>

  <path d="M405 123 L423 123 L423 285" fill="none" stroke="#5d5d5d" stroke-width="3" stroke-dasharray="3 5" marker-end="url(#arrow-gray)" />
  <line x1="477" y1="34" x2="477" y2="52" stroke="#666" stroke-width="3" marker-end="url(#arrow-gray)" />
  <rect x="438" y="52" width="99" height="143" rx="15" fill="#f7e6ef" stroke="#5d5d5d" stroke-width="3" stroke-dasharray="9 7" />
  <text x="488" y="118" font-family="Times New Roman, serif" font-size="21" font-weight="700" text-anchor="middle">MLLM</text>
  <text x="488" y="143" font-family="Times New Roman, serif" font-size="21" font-weight="700" text-anchor="middle">Emb <tspan font-style="italic">E</tspan><tspan dy="4" font-size="14" font-style="italic">i</tspan></text>

  <path d="M423 195 L423 257 L135 257 L135 285" fill="none" stroke="#5d5d5d" stroke-width="3" stroke-dasharray="3 5" marker-end="url(#arrow-gray)" />
  <path d="M487 195 L487 257 L273 257 L273 364" fill="none" stroke="#ff9da0" stroke-width="3" marker-end="url(#arrow-pink)" />

  <rect x="20" y="285" width="234" height="76" rx="10" fill="#e6f3de" stroke="#4e8b35" stroke-width="3" />
  <text x="137" y="320" font-family="Times New Roman, serif" font-size="25" font-weight="700" text-anchor="middle">ItemTag Extraction</text>
  <text x="137" y="347" font-family="Times New Roman, serif" font-size="25" font-weight="700" text-anchor="middle">Prompt <tspan font-style="italic">X</tspan><tspan dy="-7" font-size="16">C</tspan><tspan dy="7" font-size="16" font-style="italic">i</tspan></text>

  <rect x="304" y="286" width="229" height="76" rx="10" fill="#f8ecdf" stroke="#b98900" stroke-width="3" />
  <text x="419" y="321" font-family="Times New Roman, serif" font-size="25" font-weight="700" text-anchor="middle">UserTag Extraction</text>
  <text x="419" y="348" font-family="Times New Roman, serif" font-size="25" font-weight="700" text-anchor="middle">Prompt <tspan font-style="italic">X</tspan><tspan dy="-7" font-size="16">T</tspan><tspan dy="7" font-size="16" font-style="italic">i</tspan></text>

  <path d="M131 361 L131 402 L225 402" fill="none" stroke="#9ac783" stroke-width="3" marker-end="url(#arrow-green)" />
  <path d="M131 361 L131 453" fill="none" stroke="#9ac783" stroke-width="3" marker-end="url(#arrow-green)" />
  <path d="M220 417 L98 417 L98 489" fill="none" stroke="#9ac783" stroke-width="3" marker-end="url(#arrow-green)" />
  <path d="M414 362 L414 400 L316 400" fill="none" stroke="#ffad7a" stroke-width="3" marker-end="url(#arrow-orange)" />
  <path d="M315 417 L415 417 L415 456" fill="none" stroke="#ffad7a" stroke-width="3" marker-end="url(#arrow-orange)" />

  <rect x="58" y="461" width="149" height="45" rx="7" fill="#e0f1d7" stroke="#b7dba7" stroke-width="2" />
  <rect x="46" y="492" width="147" height="46" rx="7" fill="#c6e6b5" stroke="#9ed18d" stroke-width="2" />
  <rect x="35" y="514" width="142" height="47" rx="7" fill="#aad590" stroke="#80bb66" stroke-width="2" />
  <text x="132" y="489" font-family="Times New Roman, serif" font-size="20" text-anchor="middle">Live Music</text>
  <text x="106" y="531" font-family="Times New Roman, serif" font-size="20" text-anchor="middle">Instrument</text>
  <text x="106" y="555" font-family="Times New Roman, serif" font-size="20" text-anchor="middle">Shows</text>
  <text x="36" y="590" font-family="Times New Roman, serif" font-size="25" font-weight="700">ItemTag Set <tspan font-style="italic">C</tspan><tspan dy="-8" font-size="16">*</tspan></text>

  <rect x="350" y="468" width="150" height="47" rx="7" fill="#fff1ce" stroke="#d59a00" stroke-width="2" />
  <rect x="337" y="497" width="143" height="45" rx="7" fill="#ffd9bf" stroke="#d59a00" stroke-width="2" />
  <rect x="326" y="512" width="141" height="47" rx="7" fill="#ffcba7" stroke="#d59a00" stroke-width="2" />
  <text x="425" y="488" font-family="Times New Roman, serif" font-size="20" text-anchor="middle">Folk Music</text>
  <text x="397" y="519" font-family="Times New Roman, serif" font-size="20" text-anchor="middle">Music</text>
  <text x="397" y="544" font-family="Times New Roman, serif" font-size="20" text-anchor="middle">Enthusiast</text>
  <text x="331" y="590" font-family="Times New Roman, serif" font-size="25" font-weight="700">UserTag Set <tspan font-style="italic">T</tspan><tspan dy="-8" font-size="16">*</tspan></text>

  <path d="M97 601 L97 648 L730 648 L730 621" fill="none" stroke="#9ac783" stroke-width="3" marker-end="url(#arrow-green)" />
  <path d="M411 600 L411 664 L920 664 L920 621" fill="none" stroke="#ffad7a" stroke-width="3" marker-end="url(#arrow-orange)" />

  <text x="229" y="169" font-family="Times New Roman, serif" font-size="25" font-weight="700" text-anchor="middle">MLLM</text>
  <text x="269" y="487" font-family="Times New Roman, serif" font-size="25" font-weight="700" text-anchor="middle">MLLM</text>

  
  <rect x="625" y="31" width="406" height="320" rx="25" fill="#eff7ff" stroke="#555" stroke-width="1.5" stroke-dasharray="5 6" />
  <text x="640" y="63" font-family="Times New Roman, serif" font-size="25" font-weight="700" font-style="italic">Logic Graph</text>

  <path d="M710 88 L710 294" fill="none" stroke="#ffad7a" stroke-width="3" />
  <path d="M725 130 L725 240 L759 240" fill="none" stroke="#ffad7a" stroke-width="3" marker-end="url(#arrow-orange)" />
  <path d="M710 88 L770 88" fill="none" stroke="#ffad7a" stroke-width="3" />
  <path d="M710 130 L740 130" fill="none" stroke="#ffad7a" stroke-width="3" />
  <path d="M710 294 L731 294" fill="none" stroke="#ffad7a" stroke-width="3" marker-end="url(#arrow-orange)" />
  <text x="641" y="188" font-family="Times New Roman, serif" font-size="22" font-weight="700" fill="#c75e00" font-style="italic">G<tspan dy="-7" font-size="14">U2I*</tspan></text>

  <path d="M930 88 L930 294 L877 294" fill="none" stroke="#95c879" stroke-width="3" />
  <path d="M945 130 L945 239 L907 239" fill="none" stroke="#95c879" stroke-width="3" />
  <path d="M945 130 L918 130" fill="none" stroke="#95c879" stroke-width="3" marker-end="url(#arrow-green)" />
  <path d="M930 88 L918 88" fill="none" stroke="#95c879" stroke-width="3" marker-end="url(#arrow-green)" />
  <path d="M945 270 L877 270" fill="none" stroke="#95c879" stroke-width="3" />
  <text x="962" y="195" font-family="Times New Roman, serif" font-size="22" font-weight="700" fill="#4e8740" font-style="italic">G<tspan dy="-7" font-size="14">I2U*</tspan></text>

  <rect x="770" y="64" width="148" height="49" rx="7" fill="#fff1ce" stroke="#d59a00" stroke-width="2" />
  <rect x="755" y="88" width="150" height="42" rx="7" fill="#ffe3c8" stroke="#d59a00" stroke-width="2" />
  <rect x="740" y="107" width="141" height="49" rx="7" fill="#ffd0a9" stroke="#d59a00" stroke-width="2" />
  <text x="844" y="84" font-family="Times New Roman, serif" font-size="20" text-anchor="middle">Folk Music</text>
  <text x="811" y="126" font-family="Times New Roman, serif" font-size="20" text-anchor="middle">Music</text>
  <text x="811" y="150" font-family="Times New Roman, serif" font-size="20" text-anchor="middle">Enthusiast</text>
  <text x="750" y="182" font-family="Times New Roman, serif" font-size="25" font-weight="700">UserTag Set <tspan font-style="italic">C</tspan><tspan dy="-8" font-size="16">*</tspan></text>

  <rect x="760" y="216" width="147" height="46" rx="7" fill="#e0f1d7" stroke="#b7dba7" stroke-width="2" />
  <rect x="743" y="242" width="145" height="45" rx="7" fill="#c6e6b5" stroke="#9ed18d" stroke-width="2" />
  <rect x="731" y="269" width="141" height="49" rx="7" fill="#aad590" stroke="#80bb66" stroke-width="2" />
  <text x="833" y="246" font-family="Times New Roman, serif" font-size="20" text-anchor="middle">Live Music</text>
  <text x="802" y="288" font-family="Times New Roman, serif" font-size="20" text-anchor="middle">Instrument</text>
  <text x="802" y="313" font-family="Times New Roman, serif" font-size="20" text-anchor="middle">Shows</text>
  <text x="741" y="345" font-family="Times New Roman, serif" font-size="25" font-weight="700">ItemTag Set <tspan font-style="italic">T</tspan><tspan dy="-8" font-size="16">*</tspan></text>

  <line x1="823" y1="389" x2="823" y2="354" stroke="#666" stroke-width="3" marker-end="url(#arrow-gray)" />
  <rect x="634" y="554" width="195" height="63" rx="9" fill="#e6f3de" stroke="#4e8b35" stroke-width="3" />
  <text x="731" y="579" font-family="Times New Roman, serif" font-size="25" font-weight="700" text-anchor="middle">I2U Logic</text>
  <text x="731" y="606" font-family="Times New Roman, serif" font-size="25" font-weight="700" text-anchor="middle">Prompt <tspan font-style="italic">X</tspan><tspan dy="5" font-size="16" font-style="italic">c</tspan></text>

  <rect x="834" y="553" width="185" height="62" rx="9" fill="#f8ecdf" stroke="#b98900" stroke-width="3" />
  <text x="926" y="579" font-family="Times New Roman, serif" font-size="25" font-weight="700" text-anchor="middle">U2I Logic</text>
  <text x="926" y="606" font-family="Times New Roman, serif" font-size="25" font-weight="700" text-anchor="middle">Prompt <tspan font-style="italic">X</tspan><tspan dy="5" font-size="16" font-style="italic">t</tspan></text>

  <path d="M730 553 L730 435 L780 435" fill="none" stroke="#9ac783" stroke-width="3" marker-end="url(#arrow-green)" />
  <path d="M921 553 L921 435 L876 435" fill="none" stroke="#ffad7a" stroke-width="3" marker-end="url(#arrow-orange)" />
  <text x="823" y="499" font-family="Times New Roman, serif" font-size="25" font-weight="700" text-anchor="middle">LLM</text>

  <path d="M1029 190 L1066 190 L1066 459 L1106 459" fill="none" stroke="#7fb0d6" stroke-width="3" marker-end="url(#arrow-blue)" />

  
  <path d="M1197 80 L1188 80 L1188 256 L1197 256" fill="none" stroke="#666" stroke-width="3" />
  <text x="1246" y="116" font-family="Times New Roman, serif" font-size="23" font-style="italic" text-anchor="middle">i<tspan dy="5" font-size="15">1</tspan></text>
  <text x="1246" y="187" font-family="Times New Roman, serif" font-size="23" font-style="italic" text-anchor="middle">i<tspan dy="5" font-size="15">2</tspan></text>
  <text x="1247" y="215" font-family="Times New Roman, serif" font-size="30" font-weight="700" text-anchor="middle">...</text>
  <text x="1247" y="289" font-family="Times New Roman, serif" font-size="23" font-style="italic" text-anchor="middle">i<tspan dy="5" font-size="15">n</tspan></text>

  <rect x="1298" y="48" width="246" height="33" rx="5" fill="#fff1ce" stroke="#d59a00" stroke-width="2" />
  <rect x="1291" y="76" width="253" height="33" rx="5" fill="#dfeecd" stroke="#4d8b35" stroke-width="2" />
  <rect x="1298" y="119" width="246" height="32" rx="5" fill="#fff1ce" stroke="#d59a00" stroke-width="2" />
  <rect x="1291" y="149" width="253" height="33" rx="5" fill="#dfeecd" stroke="#4d8b35" stroke-width="2" />
  <rect x="1298" y="226" width="246" height="32" rx="5" fill="#fff1ce" stroke="#d59a00" stroke-width="2" />
  <rect x="1291" y="256" width="253" height="33" rx="5" fill="#dfeecd" stroke="#4d8b35" stroke-width="2" />

  <text x="1421" y="70" font-family="Times New Roman, serif" font-size="21" font-weight="700" fill="#d56a18" font-style="italic" text-anchor="middle">T<tspan dy="5" font-size="14">1</tspan><tspan dy="-5"> = {t</tspan><tspan dy="5" font-size="14">1,1</tspan><tspan dy="-5">,···, t</tspan><tspan dy="5" font-size="14">1,k</tspan><tspan dy="-5">}</tspan></text>
  <text x="1420" y="99" font-family="Times New Roman, serif" font-size="21" font-weight="700" fill="#3f7c35" font-style="italic" text-anchor="middle">C<tspan dy="5" font-size="14">1</tspan><tspan dy="-5"> = {c</tspan><tspan dy="5" font-size="14">1,1</tspan><tspan dy="-5">,···, c</tspan><tspan dy="5" font-size="14">1,l</tspan><tspan dy="-5">}</tspan></text>
  <text x="1421" y="141" font-family="Times New Roman, serif" font-size="21" font-weight="700" fill="#d56a18" font-style="italic" text-anchor="middle">T<tspan dy="5" font-size="14">2</tspan><tspan dy="-5"> = {t</tspan><tspan dy="5" font-size="14">2,1</tspan><tspan dy="-5">,···, t</tspan><tspan dy="5" font-size="14">2,k</tspan><tspan dy="-5">}</tspan></text>
  <text x="1420" y="173" font-family="Times New Roman, serif" font-size="21" font-weight="700" fill="#3f7c35" font-style="italic" text-anchor="middle">C<tspan dy="5" font-size="14">2</tspan><tspan dy="-5"> = {c</tspan><tspan dy="5" font-size="14">2,1</tspan><tspan dy="-5">,···, c</tspan><tspan dy="5" font-size="14">2,l</tspan><tspan dy="-5">}</tspan></text>
  <text x="1407" y="214" font-family="Times New Roman, serif" font-size="30" font-weight="700" text-anchor="middle">...</text>
  <text x="1421" y="248" font-family="Times New Roman, serif" font-size="21" font-weight="700" fill="#d56a18" font-style="italic" text-anchor="middle">T<tspan dy="5" font-size="14">n</tspan><tspan dy="-5"> = {t</tspan><tspan dy="5" font-size="14">n,1</tspan><tspan dy="-5">,···, t</tspan><tspan dy="5" font-size="14">n,k</tspan><tspan dy="-5">}</tspan></text>
  <text x="1420" y="280" font-family="Times New Roman, serif" font-size="21" font-weight="700" fill="#3f7c35" font-style="italic" text-anchor="middle">C<tspan dy="5" font-size="14">n</tspan><tspan dy="-5"> = {c</tspan><tspan dy="5" font-size="14">n,1</tspan><tspan dy="-5">,···, c</tspan><tspan dy="5" font-size="14">n,l</tspan><tspan dy="-5">}</tspan></text>

  <text x="1387" y="332" font-family="Times New Roman, serif" font-size="19" text-anchor="middle">Input</text>
  <line x1="1413" y1="305" x2="1413" y2="364" stroke="#000" stroke-width="2.5" marker-end="url(#arrow-gray)" />

  <text x="1120" y="207" font-family="Times New Roman, serif" font-size="23">user</text>
  <text x="1119" y="383" font-family="Times New Roman, serif" font-size="18" font-style="italic">Logic Graph</text>
  <rect x="1108" y="388" width="116" height="145" rx="18" fill="#e8f2f9" stroke="#555" stroke-width="2" />
  <circle cx="1134" cy="414" r="12" fill="#f7d5bf" stroke="#333" stroke-width="1.5" />
  <circle cx="1134" cy="448" r="12" fill="#f7d5bf" stroke="#333" stroke-width="1.5" />
  <circle cx="1134" cy="482" r="12" fill="#f7d5bf" stroke="#333" stroke-width="1.5" />
  <circle cx="1199" cy="414" r="13" fill="#cde8c8" stroke="#333" stroke-width="1.5" />
  <circle cx="1199" cy="448" r="13" fill="#cde8c8" stroke="#333" stroke-width="1.5" />
  <circle cx="1199" cy="482" r="13" fill="#cde8c8" stroke="#333" stroke-width="1.5" />
  <line x1="1146" y1="414" x2="1186" y2="414" stroke="#ffad7a" stroke-width="3" marker-end="url(#arrow-orange)" />
  <line x1="1146" y1="448" x2="1186" y2="414" stroke="#9ac783" stroke-width="3" marker-end="url(#arrow-green)" />
  <line x1="1146" y1="482" x2="1186" y2="448" stroke="#ffad7a" stroke-width="3" marker-end="url(#arrow-orange)" />
  <line x1="1146" y1="414" x2="1186" y2="482" stroke="#9ac783" stroke-width="3" />
  <line x1="1146" y1="482" x2="1186" y2="414" stroke="#9ac783" stroke-width="3" />
  <text x="1135" y="525" font-family="Times New Roman, serif" font-size="19" font-style="italic" text-anchor="middle">C<tspan dy="-6" font-size="13">*</tspan></text>
  <text x="1198" y="525" font-family="Times New Roman, serif" font-size="19" font-style="italic" text-anchor="middle">T<tspan dy="-6" font-size="13">*</tspan></text>

  <line x1="1224" y1="425" x2="1284" y2="425" stroke="#000" stroke-width="2.5" marker-end="url(#arrow-gray)" />
  <line x1="1224" y1="481" x2="1284" y2="481" stroke="#000" stroke-width="2.5" marker-end="url(#arrow-gray)" />
  <text x="1236" y="413" font-family="Times New Roman, serif" font-size="18" fill="#3f7c35" font-weight="700" font-style="italic">G<tspan dy="-6" font-size="12">I2U*</tspan></text>
  <text x="1235" y="477" font-family="Times New Roman, serif" font-size="18" fill="#d56a18" font-weight="700" font-style="italic">G<tspan dy="-6" font-size="12">U2I*</tspan></text>

  <rect x="1284" y="367" width="255" height="153" fill="#f7f7f7" stroke="#4d4d4d" stroke-width="3" />
  <text x="1293" y="418" font-family="Times New Roman, serif" font-size="21" font-weight="700">RecSys</text>
  <rect x="1355" y="389" width="176" height="61" rx="7" fill="#c7f5ed" stroke="#99d9ce" stroke-width="1.5" />
  <rect x="1355" y="453" width="176" height="55" rx="7" fill="#fff3cf" stroke="#eddcae" stroke-width="1.5" />
  <text x="1443" y="414" font-family="Times New Roman, serif" font-size="19" text-anchor="middle">Tag-based</text>
  <text x="1443" y="437" font-family="Times New Roman, serif" font-size="19" text-anchor="middle">Item/User Encoder</text>
  <text x="1443" y="476" font-family="Times New Roman, serif" font-size="19" text-anchor="middle">Tag-logic</text>
  <text x="1443" y="499" font-family="Times New Roman, serif" font-size="19" text-anchor="middle">Inference Extension</text>

  <text x="1549" y="348" font-family="Times New Roman, serif" font-size="16" text-anchor="middle">Candidate</text>
  <text x="1557" y="366" font-family="Times New Roman, serif" font-size="16" text-anchor="middle">item</text>
  <text x="1583" y="401" font-family="Times New Roman, serif" font-size="22" font-weight="700" font-style="italic">v<tspan dy="5" font-size="14">i</tspan></text>
  <path d="M1578 370 L1578 472 L1539 472" fill="none" stroke="#000" stroke-width="2.5" marker-end="url(#arrow-gray)" />
  <path d="M1539 472 L1578 472" fill="none" stroke="#000" stroke-width="2.5" marker-end="url(#arrow-gray)" />

  <rect x="1111" y="570" width="278" height="75" rx="10" fill="#dff3fb" stroke="#c5dfe9" stroke-width="2" />
  <text x="1250" y="602" font-family="Times New Roman, serif" font-size="19" text-anchor="middle" font-style="italic">L = λ(L<tspan dy="5" font-size="13">ut</tspan><tspan dy="-5"> + L</tspan><tspan dy="5" font-size="13">it</tspan><tspan dy="-5">) + (1 − λ)L</tspan><tspan dy="5" font-size="13">ui</tspan></text>
  <text x="1250" y="635" font-family="Times New Roman, serif" font-size="18" text-anchor="middle">Tag-based Learning Augmentation</text>
  <line x1="1313" y1="570" x2="1313" y2="521" stroke="#000" stroke-width="2" stroke-dasharray="5 5" marker-end="url(#arrow-gray)" />
  <text x="1266" y="555" font-family="Times New Roman, serif" font-size="15" text-anchor="middle">Backpropagation</text>

  <line x1="1418" y1="520" x2="1418" y2="568" stroke="#000" stroke-width="2.5" marker-end="url(#arrow-gray)" />
  <line x1="1505" y1="520" x2="1505" y2="568" stroke="#000" stroke-width="2.5" marker-end="url(#arrow-gray)" />
  <text x="1418" y="591" font-family="Times New Roman, serif" font-size="21" font-style="italic" text-anchor="middle">ŷ<tspan dy="5" font-size="14">raw</tspan></text>
  <text x="1505" y="591" font-family="Times New Roman, serif" font-size="21" font-style="italic" text-anchor="middle">ŷ<tspan dy="5" font-size="14">tag</tspan></text>
  <line x1="1420" y1="604" x2="1454" y2="626" stroke="#000" stroke-width="2.5" marker-end="url(#arrow-gray)" />
  <line x1="1503" y1="604" x2="1470" y2="626" stroke="#000" stroke-width="2.5" marker-end="url(#arrow-gray)" />
  <text x="1462" y="646" font-family="Times New Roman, serif" font-size="24" font-style="italic" text-anchor="middle">ŷ</text>

  
  <g id="svg_slot_robot_icon_1" data-source-slot="slot_robot_icon_1" fill="none" transform="translate(196 56) scale(1.016 1.083) translate(0 0)"><g fill="#0a0a0a">
    <circle cx="32" cy="4.5" r="4.2" />
    <rect x="29.8" y="7.5" width="4.4" height="8.5" rx="2.2" />
  </g>
  <g fill="none" stroke="#0a0a0a" stroke-width="4.8" stroke-linecap="round" stroke-linejoin="round">
    <path d="M17 40H6.8V30" />
    <path d="M3.5 25.5V29a5.4 5.4 0 0 0 5.4 5.4h5" />
    <path d="M13.5 25.5v8.8" />
    <path d="M47 45h10.2v12.5" />
    <path d="M53.2 63.5v-4.4a4.2 4.2 0 0 1 8.4 0v4.4" />
  </g>
  <g fill="#0a0a0a">
    <rect x="19" y="12" width="26" height="30" rx="5.5" />
    <rect x="15" y="38" width="34" height="29" rx="2.8" />
    <rect x="29" y="64" width="7" height="6" />
    <rect x="8" y="68" width="48" height="14" rx="7" />
  </g>
  <g fill="#fff">
    <circle cx="27" cy="24.5" r="2.3" />
    <circle cx="37" cy="24.5" r="2.3" />
    <rect x="30" y="31" width="4.5" height="2.3" rx="1.15" />
    <circle cx="20" cy="75" r="2.8" />
    <circle cx="32" cy="75" r="2.8" />
    <circle cx="44" cy="75" r="2.8" />
  </g>
  <path d="M22 52.5h4.3l3-6.8 3.6 11.2 4-8.2 3 4.2h4.8" fill="none" stroke="#fff" stroke-width="2.4" stroke-linecap="round" stroke-linejoin="round" />
</g><g id="svg_slot_robot_icon_2" data-source-slot="slot_robot_icon_2" fill="none" transform="translate(240 376) scale(0.938 1.202) translate(0 0)"><path d="M3.5 25.5v1.8a5.2 5.2 0 0 0 5.2 5.2H11v8h8.5" fill="none" stroke="#000" stroke-width="5" stroke-linecap="round" stroke-linejoin="round" />
  <circle cx="32" cy="3" r="3" fill="#000" />
  <rect x="30" y="5" width="4" height="8" rx="2" fill="#000" />
  <rect x="19" y="12" width="27" height="24" rx="5" fill="#000" />
  <circle cx="27" cy="23" r="2.6" fill="#fff" />
  <circle cx="38" cy="23" r="2.6" fill="#fff" />
  <circle cx="32.5" cy="29.2" r="1.8" fill="#fff" />
  <rect x="17" y="37" width="33" height="29" rx="2" fill="#000" />
  <path d="M50 50h3.2a4.8 4.8 0 0 1 4.8 4.8V61" fill="none" stroke="#000" stroke-width="4" stroke-linecap="round" stroke-linejoin="round" />
  <circle cx="58" cy="64" r="3.2" fill="#000" />
  <path d="M22 51h5.8l3.3-8.5 3.8 17 3.2-9.3 3.3 4.8H47" fill="none" stroke="#fff" stroke-width="2.4" stroke-linecap="round" stroke-linejoin="round" />
  <rect x="29" y="64" width="6" height="6" rx="1" fill="#000" />
  <rect x="9" y="68" width="47" height="15" rx="7.5" fill="#000" />
  <circle cx="20.5" cy="75.5" r="3" fill="#fff" />
  <circle cx="32.5" cy="75.5" r="3" fill="#fff" />
  <circle cx="44.5" cy="75.5" r="3" fill="#fff" />
</g><g id="svg_slot_robot_icon_3" data-source-slot="slot_robot_icon_3" fill="none" transform="translate(794 390) scale(1.137 1.025) translate(0 0)"><g fill="#000">
    <circle cx="26" cy="4" r="3.2" />
    <rect x="24.2" y="5.5" width="3.6" height="9.5" rx="1.8" />
    <path d="M13.4 44.5H5.2V33.2" fill="none" stroke="#000" stroke-width="5" stroke-linecap="round" stroke-linejoin="round" />
    <path d="M5.1 33.1C2.9 33.1 1.2 31.4 1.2 29.2" fill="none" stroke="#000" stroke-width="3.7" stroke-linecap="round" />
    <path d="M41.6 49.2h7.2v12.5" fill="none" stroke="#000" stroke-width="5" stroke-linecap="round" stroke-linejoin="round" />
    <circle cx="48.8" cy="62.4" r="3.1" />
    <rect x="12.7" y="12.7" width="27.6" height="25.3" rx="4.3" />
    <rect x="11.5" y="38.8" width="31" height="28.5" rx="2.8" />
    <rect x="16.2" y="65.2" width="5.2" height="8.2" rx="1.2" />
    <rect x="34.1" y="65.2" width="5.2" height="8.2" rx="1.2" />
    <rect x="6.7" y="69.4" width="38.9" height="11.2" rx="5.6" />
  </g>
  <g fill="#fff">
    <circle cx="21.7" cy="25.2" r="2.35" />
    <circle cx="31.3" cy="25.2" r="2.35" />
    <circle cx="18.4" cy="76" r="2.75" />
    <circle cx="34.9" cy="76" r="2.75" />
  </g>
  <path d="M17.5 52.2h4.1l2.5-5.5 3.1 11.1 3-8.9 2.6 3.3h5.2" fill="none" stroke="#fff" stroke-width="2.1" stroke-linecap="round" stroke-linejoin="round" />
</g><g id="svg_slot_user_pictogram" data-source-slot="slot_user_pictogram" fill="none" transform="translate(1126 140) scale(1.308 0.976) translate(0 0)"><path fill="#000" d="M0 41v-9.2c0-4.7 8.7-8.5 19.4-8.5s19.4 3.8 19.4 8.5V41H0z" />
  <path fill="#000" d="M19.4 1.2a9.7 9.7 0 1 1 0 19.4 9.7 9.7 0 0 1 0-19.4z" />
  <path fill="#fff" d="M9.8 8.3c3.2-2.6 7.4-4 12-3.8 2.6.1 5 .8 7.3 1.9-.1 1.4-.5 2.8-1.2 4-4.9-2.7-10.2-2.8-15.5-.2-1 .5-2.1-.5-2.6-1.9z" />
</g><g id="svg_slot_camera_icon" data-source-slot="slot_camera_icon" fill="none" transform="translate(1215 60) scale(1 0.972) translate(0 0)"><path fill="#000" d="M3 8.5h11.6L17.2 3h12.4l2.7 5.5H45v25H3z" />
  <rect x="8" y="6.5" width="6.8" height="4" fill="#fff" />
  <circle cx="24" cy="21" r="10.2" fill="#fff" />
  <circle cx="24" cy="21" r="7.2" fill="#000" />
  <circle cx="24" cy="21" r="4.6" fill="#fff" />
</g><g id="svg_slot_movie_icon" data-source-slot="slot_movie_icon" fill="none" transform="translate(1215 126) scale(1.136 1.118) translate(0 0)"><defs>
    <mask id="slot_movie_icon_cutouts" maskUnits="userSpaceOnUse" x="0" y="0" width="44" height="34">
      <rect width="44" height="34" fill="#fff" />
      <circle cx="8" cy="5" r="1.45" fill="#000" />
      <circle cx="14" cy="5" r="1.45" fill="#000" />
      <circle cx="8" cy="11" r="1.45" fill="#000" />
      <circle cx="14" cy="11" r="1.45" fill="#000" />
      <circle cx="24" cy="5" r="1.45" fill="#000" />
      <circle cx="30" cy="5" r="1.45" fill="#000" />
      <circle cx="24" cy="11" r="1.45" fill="#000" />
      <circle cx="30" cy="11" r="1.45" fill="#000" />
      <circle cx="10.7" cy="24.2" r="1.45" fill="#000" />
    </mask>
  </defs>
  <g fill="#000" mask="url(#slot_movie_icon_cutouts)">
    <circle cx="11" cy="8" r="8" />
    <circle cx="27" cy="8" r="8" />
    <rect x="0" y="21" width="6" height="5" rx=".5" />
    <rect x="5" y="16" width="31" height="18" rx="1.4" />
    <path d="M36 20l8-3.5v15L36 28z" />
  </g>
</g><g id="svg_slot_gamepad_icon" data-source-slot="slot_gamepad_icon" fill="none" transform="translate(1214 232) scale(1 1) translate(0 0)"><path fill="#000" d="M27.5 6.9c-4.1 0-7.3-1.3-10.4-2.5C11.5 2.2 7.2 3.4 5 8.5 2.9 13.2 1.3 20.1 1.6 24.9c.3 4.5 3.2 6.7 6.8 5.7 2.7-.8 4.4-3.7 6.6-5.8 2.1-2 4.8-2.6 8.4-2.1 2.6.4 5.6.4 8.2 0 3.6-.5 6.3.1 8.4 2.1 2.2 2.1 3.9 5 6.6 5.8 3.6 1 6.5-1.2 6.8-5.7.3-4.8-1.3-11.7-3.4-16.4-2.2-5.1-6.5-6.3-12.1-4.1-3.1 1.2-6.3 2.5-10.4 2.5Z" />
  <rect x="14.1" y="9.6" width="2.7" height="9.1" rx="1.1" fill="#fff" />
  <rect x="10.9" y="12.8" width="9.1" height="2.7" rx="1.1" fill="#fff" />
  <circle cx="39.3" cy="10.1" r="1.6" fill="#fff" />
  <circle cx="42.9" cy="13.2" r="1.6" fill="#fff" />
  <circle cx="35.8" cy="13.2" r="1.6" fill="#fff" />
  <circle cx="39.3" cy="16.4" r="1.6" fill="#fff" />
</g><g id="svg_slot_recsys_network_icon" data-source-slot="slot_recsys_network_icon" fill="none" transform="translate(1295 437) scale(1.118 1) translate(0 0)"><g stroke="#111111" stroke-width="3.2" stroke-linecap="round" stroke-linejoin="round">
    <g fill="none">
      <path d="M7.4 4.8 18.8 16.3" />
      <path d="M7.4 4.8 7.5 16.8" />
      <path d="M7.5 16.8 18.8 16.3" />
      <path d="M7.5 16.8 18.9 28.3" />
      <path d="M7.5 16.8 7.5 29.3" />
      <path d="M18.8 16.3 7.5 29.3" />
      <path d="M18.8 16.3 30.4 10.7" />
      <path d="M18.8 16.3 31.6 26.2" />
      <path d="M7.5 29.3 18.9 28.3" />
      <path d="M7.5 29.3 18.9 39.3" />
      <path d="M7.5 29.3 7.4 42.5" />
      <path d="M18.9 28.3 31.6 26.2" />
      <path d="M18.9 28.3 18.9 39.3" />
      <path d="M18.9 28.3 7.4 42.5" />
      <path d="M30.4 10.7 31.6 26.2" />
      <path d="M30.4 10.7 44.8 26.1" />
      <path d="M31.6 26.2 44.8 26.1" />
      <path d="M31.6 26.2 31.2 38.4" />
      <path d="M31.6 26.2 18.9 39.3" />
      <path d="M18.9 39.3 31.2 38.4" />
      <path d="M7.4 42.5 18.9 39.3" />
    </g>
    <g fill="#ffffff">
      <circle cx="7.4" cy="4.8" r="3.05" />
      <circle cx="7.5" cy="16.8" r="3.05" />
      <circle cx="7.5" cy="29.3" r="3.05" />
      <circle cx="7.4" cy="42.5" r="3.05" />
      <circle cx="18.8" cy="16.3" r="3.05" />
      <circle cx="18.9" cy="28.3" r="3.05" />
      <circle cx="18.9" cy="39.3" r="3.05" />
      <circle cx="30.4" cy="10.7" r="3.05" />
      <circle cx="31.6" cy="26.2" r="3.05" />
      <circle cx="31.2" cy="38.4" r="3.05" />
      <circle cx="44.8" cy="26.1" r="3.05" />
    </g>
  </g>
</g><g id="svg_slot_candidate_item_icon" data-source-slot="slot_candidate_item_icon" fill="none" transform="translate(1546 378) scale(0.806 1) translate(0 0)"><path fill="#fff" d="M0 0h31v31H0z" />
  <path fill="#111" d="M6.6 3.1 2.7 7a1.45 1.45 0 0 0 2.05 2.05l3.9-3.9A1.45 1.45 0 0 0 6.6 3.1Zm12.8 0a1.45 1.45 0 0 0-2.05 2.05l3.9 3.9A1.45 1.45 0 0 0 23.3 7l-3.9-3.9ZM13 2h4v5h-4zM15 6a11.5 11.5 0 1 0 0 23 11.5 11.5 0 0 0 0-23Zm0 3a8.5 8.5 0 1 1 0 17 8.5 8.5 0 0 1 0-17Z" />
  <path fill="#111" d="M13.7 11h2.4v6.15l4.35 3.05-1.38 1.97-5.37-3.76V11Z" />
  <path fill="#111" d="m6.1 26.1 2.15 1.45-1.7 2.5H3.7l2.4-3.95Zm17.8 0 2.4 3.95h-2.85l-1.7-2.5 2.15-1.45Z" />
</g><text x="278" y="729" font-family="Times New Roman, serif" font-size="29" font-weight="700" text-anchor="middle">(1) MLLM-based Tag Extraction</text>
  <text x="823" y="729" font-family="Times New Roman, serif" font-size="29" font-weight="700" text-anchor="middle">(2) LLM-based Collaborative Logic Reasoning</text>
  <text x="1350" y="729" font-family="Times New Roman, serif" font-size="29" font-weight="700" text-anchor="middle">(3) Tag Logic Integration</text>
</svg>