<svg xmlns="http://www.w3.org/2000/svg" viewBox="0 0 125 148">
  <g fill="none" stroke="#111" stroke-width="3.5" stroke-linecap="round" stroke-linejoin="round">
    <path d="M63 84h10c22 0 40 18 40 40v24H27v-24c0-22 18-40 40-40h6" fill="#f7f7f7"/>
    <path d="M20 39V16"/>
    <circle cx="20" cy="16" r="6" fill="#ff4d6d"/>
    <path d="M118 39V16"/>
    <circle cx="118" cy="16" r="6" fill="#ff4d6d"/>
    <rect x="49" y="10" width="40" height="20" rx="8" fill="#eaf4ff"/>
    <path d="M28 37c-10 0-17 5-17 13s7 13 17 13Z" fill="#79b6e8"/>
    <path d="M112 37c10 0 17 5 17 13s-7 13-17 13Z" fill="#79b6e8"/>
    <rect x="27" y="22" width="86" height="56" rx="15" fill="#79b6e8"/>
    <rect x="39" y="31" width="62" height="36" rx="18" fill="#fff"/>
    <path d="M58 59l8-20 8 20M62 52h9"/>
    <path d="M83 40v19M78 40h10M78 59h10"/>
    <path d="M63 108v12M74 111v9"/>
    <path d="M62 108a4 4 0 1 0 0-8 4 4 0 0 0 0 8Z" fill="#ff4d6d"/>
    <path d="M74 111a4 4 0 1 0 0-8 4 4 0 0 0 0 8Z" fill="#ff4d6d"/>
    <path d="M58 134h-8l-6-5h-5"/>
    <circle cx="38" cy="129" r="4" fill="#ff4d6d"/>
    <path d="M80 134h8l6-5h5"/>
    <circle cx="100" cy="129" r="4" fill="#ff4d6d"/>
    <rect x="58" y="120" width="22" height="28" rx="2" fill="#8fc5ef"/>
  </g>
</svg>