<svg xmlns="http://www.w3.org/2000/svg" width="1937" height="1060" viewBox="0 0 1937 1060">
  <defs>
    <marker id="arrow" markerWidth="12" markerHeight="10" refX="10" refY="5" orient="auto" markerUnits="strokeWidth">
      <path d="M0,0 L10,5 L0,10 Z" fill="currentColor"/>
    </marker>
    <marker id="arrowSmall" markerWidth="9" markerHeight="8" refX="8" refY="4" orient="auto" markerUnits="strokeWidth">
      <path d="M0,0 L8,4 L0,8 Z" fill="currentColor"/>
    </marker>
    <style>
      .txt{font-family:"Trebuchet MS",Arial,sans-serif;fill:#222}
      .blue{stroke:#145d81;fill:#dcecf8}
      .green{stroke:#276b21;fill:#dff4dc}
      .orange{stroke:#8a3d16;fill:#f7cdb5}
      .purple{stroke:#8a5a9c}
      .gold{stroke:#dfb66c}
      .thin{stroke-width:3}
      .med{stroke-width:4}
      .dashBlue{stroke:#1d668c;stroke-width:3;stroke-dasharray:12 9;fill:none}
      .dashBlk{stroke:#15313a;stroke-width:3;stroke-dasharray:12 9;fill:none}
      .dashGold{stroke:#dfbd75;stroke-width:3;stroke-dasharray:22 12;fill:none}
      .boxText{font-size:30px}
      .label{font-size:25px}
      .small{font-size:23px}
      .formula{font-size:25px;font-style:italic}
      .flame{font-size:34px;fill:#d31219;font-family:Arial,sans-serif}
      .snow{font-size:31px;fill:#3a8cc3;font-family:Arial,sans-serif}
    </style>
  </defs>

  <rect width="1937" height="1060" fill="#fff"/>

  <!-- Top heads -->
  <rect x="820" y="20" width="205" height="40" rx="2" fill="#f3c7dd" stroke="#6e114e" stroke-width="3"/>
  <text x="842" y="50" class="txt" font-size="29" fill="#4d1947">Time Head</text>
  <text x="824" y="51" class="flame" font-size="31">🔥</text>
  <text x="991" y="51" class="flame" font-size="28">🔥</text>

  <rect x="1136" y="20" width="193" height="40" rx="2" fill="#f3c7dd" stroke="#6e114e" stroke-width="3"/>
  <text x="1170" y="50" class="txt" font-size="29" fill="#4d1947">LM Head</text>
  <text x="1141" y="51" class="flame" font-size="31">🔥</text>
  <text x="1299" y="51" class="flame" font-size="28">🔥</text>
  <line x1="1025" y1="40" x2="1134" y2="40" stroke="#6e114e" stroke-width="2.5" stroke-dasharray="8 5" marker-end="url(#arrow)"/>
  <text x="1037" y="31" class="txt" font-size="24" fill="#4d1947">&lt;sync&gt;</text>
  <line x1="923" y1="78" x2="923" y2="61" stroke="#111" stroke-width="4" marker-end="url(#arrow)"/>
  <line x1="1233" y1="78" x2="1233" y2="61" stroke="#111" stroke-width="4" marker-end="url(#arrow)"/>

  <!-- LLM -->
  <rect x="121" y="79" width="1204" height="69" rx="4" fill="#fde3d2" stroke="#8a3d16" stroke-width="3"/>
  <text x="537" y="126" class="txt" font-size="34" fill="#7f3a18">Large Language Model</text>
  <text x="128" y="137" class="flame" font-size="53">🔥</text>

  <!-- connector boundary and title -->
  <rect x="17" y="164" width="1502" height="418" class="dashBlue"/>
  <text x="1133" y="196" class="flame" font-size="38">🔥</text>
  <text x="1170" y="196" class="txt" font-size="29" font-weight="700" fill="#1b5d86">Query-Based Connector</text>

  <!-- Legend -->
  <rect x="1538" y="164" width="380" height="203" class="dashBlk"/>
  <g class="txt" font-size="25">
    <circle cx="1568" cy="190" r="19" fill="none" stroke="#111" stroke-width="3"/>
    <line x1="1544" y1="190" x2="1592" y2="190" stroke="#111" stroke-width="3"/>
    <line x1="1568" y1="166" x2="1568" y2="214" stroke="#111" stroke-width="3"/>
    <text x="1597" y="201">Point-wise Addition</text>
    <text x="1551" y="253" class="flame">🔥</text><text x="1597" y="249">Stage2 Trainable Modules</text>
    <text x="1551" y="307" class="flame">🔥</text><text x="1597" y="301">Stage3 Trainable Modules</text>
    <text x="1553" y="355" class="snow">❄</text><text x="1597" y="351">Frozen Components</text>
  </g>

  <!-- Compressor -->
  <line x1="724" y1="177" x2="724" y2="149" stroke="#111" stroke-width="4" marker-end="url(#arrow)"/>
  <rect x="520" y="176" width="426" height="54" rx="2" fill="#fde3d2" stroke="#8a3d16" stroke-width="3"/>
  <text x="548" y="213" class="txt" font-size="30" fill="#7f3a18">Compress &amp; Two-layer MLP</text>
  <line x1="724" y1="254" x2="724" y2="231" stroke="#111" stroke-width="4" marker-end="url(#arrow)"/>

  <!-- Multimodal tokens concat -->
  <text x="246" y="283" class="txt label" fill="#1e6b83">Multimodal</text>
  <text x="389" y="283" class="txt label" fill="#9a4420">tokens</text>
  <rect x="464" y="254" width="573" height="39" rx="8" fill="#edf2f4"/>
  <text x="478" y="283" class="txt" font-size="29" fill="#276b7d">Concat( Wv∗</text>
  <rect x="642" y="261" width="31" height="29" rx="5" fill="#94bde0"/>
  <rect x="679" y="261" width="31" height="29" rx="5" fill="#94bde0"/>
  <text x="716" y="283" class="txt" font-size="29" fill="#4f8136">Wa∗</text>
  <rect x="779" y="261" width="31" height="29" rx="5" fill="#95c963"/>
  <rect x="816" y="261" width="31" height="29" rx="5" fill="#95c963"/>
  <text x="856" y="283" class="txt" font-size="29" fill="#9a4420">Ws∗</text>
  <rect x="912" y="261" width="31" height="29" rx="5" fill="#f2b699"/>
  <rect x="949" y="261" width="31" height="29" rx="5" fill="#f2b699"/>
  <text x="983" y="283" class="txt" font-size="29">)</text>
  <rect x="997" y="257" width="31" height="31" rx="5" fill="#e2b86e"/>

  <!-- Addition node -->
  <circle cx="724" cy="335" r="22" fill="#fff" stroke="#111" stroke-width="3"/>
  <line x1="699" y1="335" x2="749" y2="335" stroke="#111" stroke-width="3"/>
  <line x1="724" y1="310" x2="724" y2="360" stroke="#111" stroke-width="3"/>

  <!-- Vision branch inside connector -->
  <rect x="121" y="431" width="283" height="63" rx="3" class="blue thin"/>
  <text x="158" y="474" class="txt boxText" fill="#234a67">Cross Attention</text>
  <text x="28" y="535" class="txt label" fill="#1e6b83">Vision Tokens</text>
  <rect x="189" y="516" width="150" height="44" rx="7" fill="#edf2f4"/>
  <rect x="202" y="526" width="31" height="31" rx="5" fill="#94bde0"/>
  <rect x="248" y="526" width="31" height="31" rx="5" fill="#94bde0"/>
  <rect x="294" y="526" width="31" height="31" rx="5" fill="#94bde0"/>
  <line x1="263" y1="431" x2="263" y2="336" stroke="#145d81" stroke-width="3" fill="none"/>
  <line x1="263" y1="336" x2="687" y2="336" stroke="#145d81" stroke-width="3" marker-end="url(#arrow)"/>
  <ellipse cx="398" cy="335" rx="56" ry="18" class="blue thin"/>
  <text x="379" y="344" class="txt label" fill="#234a67">Wv</text>
  <text x="470" y="364" class="formula" fill="#145d81">f<tspan font-size="18" baseline-shift="sub">i</tspan><tspan baseline-shift="super" font-size="18">v,q</tspan></text>
  <line x1="263" y1="516" x2="263" y2="495" stroke="#145d81" stroke-width="4" marker-end="url(#arrow)"/>

  <!-- Audio branch inside connector -->
  <rect x="584" y="428" width="282" height="64" rx="4" class="green thin"/>
  <text x="621" y="469" class="txt boxText" fill="#285928">Cross Attention</text>
  <text x="482" y="535" class="txt label" fill="#4c7f2a">Audio Tokens</text>
  <rect x="642" y="516" width="147" height="44" rx="7" fill="#edf2f4"/>
  <rect x="651" y="526" width="31" height="31" rx="5" fill="#91c774"/>
  <rect x="696" y="526" width="31" height="31" rx="5" fill="#91c774"/>
  <rect x="742" y="526" width="31" height="31" rx="5" fill="#91c774"/>
  <line x1="724" y1="428" x2="724" y2="361" stroke="#71bf4f" stroke-width="4" marker-end="url(#arrow)"/>
  <ellipse cx="724" cy="393" rx="55" ry="18" class="green thin"/>
  <text x="704" y="402" class="txt label" fill="#285928">Wa</text>
  <text x="747" y="364" class="formula" fill="#4c913e">f<tspan font-size="18" baseline-shift="sub">i</tspan><tspan baseline-shift="super" font-size="18">a,q</tspan></text>
  <line x1="724" y1="319" x2="724" y2="294" stroke="#71bf4f" stroke-width="4" marker-end="url(#arrow)"/>
  <line x1="724" y1="516" x2="724" y2="493" stroke="#71bf4f" stroke-width="4" marker-end="url(#arrow)"/>

  <!-- Speech branch inside connector -->
  <rect x="1031" y="424" width="282" height="64" rx="3" class="orange thin"/>
  <text x="1068" y="466" class="txt boxText" fill="#793717">Cross Attention</text>
  <text x="904" y="538" class="txt label" fill="#8a3d16">Speech Tokens</text>
  <rect x="1093" y="516" width="143" height="44" rx="7" fill="#edf2f4"/>
  <rect x="1099" y="526" width="31" height="31" rx="5" fill="#ed7d35"/>
  <rect x="1145" y="526" width="31" height="31" rx="5" fill="#ed7d35"/>
  <rect x="1191" y="526" width="31" height="31" rx="5" fill="#ed7d35"/>
  <line x1="1172" y1="424" x2="1172" y2="336" stroke="#e97d36" stroke-width="3" fill="none"/>
  <line x1="1172" y1="336" x2="760" y2="336" stroke="#e97d36" stroke-width="3" marker-end="url(#arrow)"/>
  <ellipse cx="1067" cy="336" rx="50" ry="18" class="orange thin"/>
  <text x="1050" y="345" class="txt label" fill="#793717">Ws</text>
  <text x="972" y="362" class="formula" fill="#d76c31">f<tspan font-size="18" baseline-shift="sub">i</tspan><tspan baseline-shift="super" font-size="18">s,q</tspan></text>
  <line x1="1172" y1="516" x2="1172" y2="489" stroke="#e97d36" stroke-width="4" marker-end="url(#arrow)"/>

  <!-- Time connector golden path -->
  <path d="M1431,609 L1431,273 L1030,273" fill="none" class="gold thin" marker-end="url(#arrow)"/>

  <!-- Encoders/projectors below connector -->
  <g>
    <rect x="121" y="592" width="283" height="64" rx="3" class="blue thin"/>
    <text x="160" y="635" class="txt boxText" fill="#234a67">Vision Projector</text>
    <text x="378" y="632" class="flame" font-size="32">🔥</text>
    <text x="411" y="635" class="formula" fill="#234a67">f<tspan font-size="18" baseline-shift="sub">i</tspan><tspan baseline-shift="super" font-size="18">,v</tspan></text>
    <rect x="121" y="679" width="283" height="63" rx="3" class="blue thin"/>
    <text x="162" y="722" class="txt boxText" fill="#234a67">Vision Encoder</text>
    <text x="374" y="714" class="snow">❄</text>
    <text x="411" y="724" class="formula" fill="#234a67">f<tspan font-size="18" baseline-shift="sub">i</tspan><tspan baseline-shift="super" font-size="18">v</tspan></text>
    <line x1="257" y1="592" x2="257" y2="561" stroke="#145d81" stroke-width="4" marker-end="url(#arrow)"/>
    <line x1="257" y1="679" x2="257" y2="657" stroke="#145d81" stroke-width="4" marker-end="url(#arrow)"/>
    <line x1="257" y1="767" x2="257" y2="743" stroke="#145d81" stroke-width="4" marker-end="url(#arrow)"/>
    <rect x="28" y="769" width="456" height="87" fill="none" stroke="#145d81" stroke-width="3" stroke-dasharray="10 8"/>
    <rect x="37" y="779" width="128" height="69" fill="#bdd4dc"/>
    <circle cx="105" cy="804" r="18" fill="#5b352c"/><rect x="74" y="822" width="62" height="22" fill="#80a2b6"/><rect x="77" y="810" width="57" height="16" fill="#e6e6e6"/>
    <rect x="178" y="779" width="130" height="69" fill="#b8cbd2"/>
    <path d="M181 834 L302 790" stroke="#9b8a41" stroke-width="10"/><path d="M198 848 L305 810" stroke="#657b88" stroke-width="16"/>
    <text x="315" y="828" font-size="34" class="txt">...</text>
    <rect x="342" y="779" width="130" height="69" fill="#c9d7d9"/>
    <circle cx="407" cy="807" r="18" fill="#6a3a2d"/><rect x="378" y="821" width="61" height="22" fill="#76a1bb"/><rect x="381" y="811" width="55" height="15" fill="#eeeeee"/>
  </g>

  <g>
    <rect x="584" y="595" width="282" height="64" rx="4" class="green thin"/>
    <text x="620" y="638" class="txt boxText" fill="#285928">Audio Projector</text>
    <text x="839" y="635" class="flame" font-size="32">🔥</text>
    <text x="874" y="639" class="formula" fill="#2f8c2d">f<tspan font-size="18" baseline-shift="sub">i</tspan><tspan baseline-shift="super" font-size="18">,a</tspan></text>
    <rect x="584" y="679" width="282" height="63" rx="4" class="green thin"/>
    <text x="621" y="721" class="txt boxText" fill="#285928">Audio Encoder</text>
    <text x="837" y="715" class="snow">❄</text>
    <text x="872" y="724" class="formula" fill="#2f8c2d">f<tspan font-size="18" baseline-shift="sub">i</tspan><tspan baseline-shift="super" font-size="18">a</tspan></text>
    <line x1="724" y1="595" x2="724" y2="561" stroke="#71bf4f" stroke-width="4" marker-end="url(#arrow)"/>
    <line x1="724" y1="679" x2="724" y2="660" stroke="#71bf4f" stroke-width="4" marker-end="url(#arrow)"/>
    <line x1="724" y1="769" x2="724" y2="743" stroke="#71bf4f" stroke-width="4" marker-end="url(#arrow)"/>
    <rect x="567" y="769" width="323" height="87" fill="#e5f4db" stroke="#276b21" stroke-width="3" stroke-dasharray="12 9"/>
    <path d="M579 815 C583 785 587 845 591 806 S599 781 603 831 S611 782 615 821 S623 786 627 836 S635 778 639 820 S647 787 651 829 S659 780 663 830 S671 792 675 812 S683 784 687 835 S695 776 699 825 S707 786 711 823 S719 779 723 837 S731 787 735 816 S743 788 747 831 S755 781 759 823 S767 789 771 811 S779 783 783 838 S791 785 795 819 S803 782 807 830 S815 778 819 828 S827 790 831 811 S839 784 843 835 S851 787 855 821 S863 783 867 832 S875 790 879 815" fill="none" stroke="#276b21" stroke-width="5" stroke-linecap="round"/>
  </g>

  <g>
    <rect x="1031" y="595" width="282" height="64" rx="3" class="orange thin"/>
    <text x="1055" y="638" class="txt boxText" fill="#793717">Speech Projector</text>
    <text x="1288" y="635" class="flame" font-size="32">🔥</text>
    <text x="1320" y="639" class="formula" fill="#8a3d16">f<tspan font-size="18" baseline-shift="sub">i</tspan><tspan baseline-shift="super" font-size="18">,s</tspan></text>
    <rect x="1031" y="679" width="282" height="63" rx="3" class="orange thin"/>
    <text x="1059" y="722" class="txt boxText" fill="#793717">Speech Encoder</text>
    <text x="1285" y="715" class="snow">❄</text>
    <text x="1320" y="724" class="formula" fill="#8a3d16">f<tspan font-size="18" baseline-shift="sub">i</tspan><tspan baseline-shift="super" font-size="18">s</tspan></text>
    <line x1="1172" y1="595" x2="1172" y2="561" stroke="#e97d36" stroke-width="4" marker-end="url(#arrow)"/>
    <line x1="1172" y1="679" x2="1172" y2="660" stroke="#e97d36" stroke-width="4" marker-end="url(#arrow)"/>
    <line x1="1172" y1="769" x2="1172" y2="743" stroke="#e97d36" stroke-width="4" marker-end="url(#arrow)"/>
    <rect x="1010" y="769" width="323" height="87" fill="#f9d8c7" stroke="#8a3d16" stroke-width="3" stroke-dasharray="12 9"/>
    <path d="M1023 813 C1027 790 1031 835 1035 805 S1043 781 1047 829 S1055 787 1059 819 S1067 777 1071 838 S1079 784 1083 817 S1091 788 1095 831 S1103 779 1107 825 S1115 789 1119 814 S1127 780 1131 839 S1139 785 1143 819 S1151 782 1155 831 S1163 778 1167 827 S1175 790 1179 811 S1187 784 1191 835 S1199 787 1203 821 S1211 783 1215 832 S1223 790 1227 815 S1235 786 1239 833 S1247 779 1251 824 S1259 787 1263 817 S1271 780 1275 836 S1283 788 1287 819 S1295 782 1299 830 S1307 790 1311 811" fill="none" stroke="#8a3d16" stroke-width="5" stroke-linecap="round"/>
  </g>

  <!-- Time encoder -->
  <rect x="1358" y="610" width="165" height="70" rx="4" fill="#f6c98d" stroke="#8a3d16" stroke-width="3"/>
  <text x="1409" y="637" class="txt" font-size="28" fill="#7d3c17">Time</text>
  <text x="1383" y="672" class="txt" font-size="28" fill="#7d3c17">Encoder</text>
  <text x="1497" y="631" class="flame" font-size="28">🔥</text>
  <text x="1497" y="660" class="flame" font-size="28">🔥</text>

  <!-- Text tokens/tokenizer/query -->
  <rect x="1651" y="799" width="234" height="64" rx="4" fill="#f1d7ea" stroke="#7c1b69" stroke-width="3"/>
  <text x="1675" y="842" class="txt" font-size="29" fill="#8a1d6d">Text Tokenizer</text>
  <line x1="1768" y1="907" x2="1768" y2="864" stroke="#111" stroke-width="4" marker-end="url(#arrow)"/>
  <line x1="1768" y1="799" x2="1768" y2="755" stroke="#111" stroke-width="4" marker-end="url(#arrow)"/>
  <text x="1556" y="727" class="txt label" fill="#8a5a9c">Text Tokens</text>
  <rect x="1701" y="708" width="139" height="45" rx="7" fill="#edf0f4"/>
  <rect x="1710" y="716" width="32" height="32" rx="6" fill="#87569a"/>
  <rect x="1755" y="714" width="33" height="33" rx="6" fill="#87569a"/>
  <rect x="1802" y="715" width="31" height="32" rx="6" fill="#87569a"/>
  <path d="M1835,708 L1768,708 L1768,575 L1254,575 L1254,493" fill="none" stroke="#8a5a9c" stroke-width="3" marker-end="url(#arrowSmall)"/>
  <path d="M1768,575 L798,575 L798,493" fill="none" stroke="#8a5a9c" stroke-width="3" marker-end="url(#arrowSmall)"/>
  <path d="M1768,575 L382,575 L382,493" fill="none" stroke="#8a5a9c" stroke-width="3" marker-end="url(#arrowSmall)"/>
  <text x="1722" y="556" class="formula" fill="#8a5a9c">f<tspan font-size="18" baseline-shift="sub">i</tspan><tspan baseline-shift="super" font-size="18">q</tspan></text>

  <rect x="1452" y="907" width="515" height="153" fill="#ffd633" stroke="#d67b00" stroke-width="4"/>
  <text x="1465" y="940" class="txt" font-size="26" font-weight="700">Query:</text>
  <text x="1557" y="940" class="txt" font-size="25">Locate the moment where “A</text>
  <text x="1465" y="971" class="txt" font-size="25" fill="#88652a">man wearing a white mask is talking</text>
  <text x="1465" y="1001" class="txt" font-size="25" fill="#88652a">about the sponsor under noisy street</text>
  <text x="1465" y="1031" class="txt" font-size="25" fill="#88652a">sound, which they have been trying for</text>
  <text x="1465" y="1060" class="txt" font-size="25" fill="#88652a">over a year”, return precise timestamps</text>

  <!-- Bottom film timeline -->
  <line x1="5" y1="1027" x2="1412" y2="1027" class="dashGold"/>
  <line x1="5" y1="1027" x2="1412" y2="1027" stroke="#000" stroke-width="5"/>
  <g fill="#000">
    <circle cx="12" cy="1027" r="9"/><circle cx="154" cy="1027" r="9"/><circle cx="195" cy="1027" r="9"/>
    <circle cx="471" cy="1027" r="9"/><circle cx="518" cy="1027" r="9"/><circle cx="782" cy="1027" r="9"/>
    <circle cx="826" cy="1027" r="9"/><circle cx="1093" cy="1027" r="9"/><circle cx="1144" cy="1027" r="9"/>
    <circle cx="1411" cy="1027" r="9"/>
  </g>
  <g class="txt" font-size="24" fill="#222">
    <text x="5" y="1054">0s</text><text x="147" y="1054">6s</text><text x="214" y="1054">50s</text>
    <text x="452" y="1054">60s</text><text x="505" y="1054">97s</text><text x="754" y="1054">106s</text>
    <text x="817" y="1054">256s</text><text x="1061" y="1054">267s</text><text x="1131" y="1054">1747s</text><text x="1370" y="1054">1759s</text>
  </g>

  <!-- filmstrip helper groups manually -->
  <g transform="translate(22,901)">
    <rect width="132" height="101" fill="#111"/>
    <rect x="7" y="15" width="118" height="69" fill="#cfd8da"/>
    <circle cx="62" cy="42" r="19" fill="#6b3c2f"/><rect x="31" y="60" width="65" height="21" fill="#83a8bf"/><rect x="35" y="50" width="57" height="15" fill="#eee"/>
    <g fill="#fff">
      <rect x="3" y="3" width="10" height="9"/><rect x="18" y="3" width="10" height="9"/><rect x="33" y="3" width="10" height="9"/><rect x="48" y="3" width="10" height="9"/><rect x="63" y="3" width="10" height="9"/><rect x="78" y="3" width="10" height="9"/><rect x="93" y="3" width="10" height="9"/><rect x="108" y="3" width="10" height="9"/>
      <rect x="3" y="88" width="10" height="9"/><rect x="18" y="88" width="10" height="9"/><rect x="33" y="88" width="10" height="9"/><rect x="48" y="88" width="10" height="9"/><rect x="63" y="88" width="10" height="9"/><rect x="78" y="88" width="10" height="9"/><rect x="93" y="88" width="10" height="9"/><rect x="108" y="88" width="10" height="9"/>
    </g>
  </g>
  <text x="174" y="966" class="txt" font-size="31">...</text>
  <g transform="translate(205,901)">
    <rect width="265" height="101" fill="#111"/>
    <rect x="8" y="15" width="122" height="69" fill="#bfcbd0"/>
    <circle cx="68" cy="43" r="18" fill="#573428"/><rect x="37" y="60" width="63" height="20" fill="#7da1b5"/><rect x="41" y="51" width="55" height="15" fill="#eee"/>
    <rect x="135" y="15" width="122" height="69" fill="#bdc7c9"/>
    <circle cx="194" cy="43" r="18" fill="#5b3428"/><rect x="163" y="61" width="63" height="20" fill="#819eb0"/><rect x="166" y="51" width="57" height="15" fill="#eee"/>
    <g fill="#fff">
      <rect x="4" y="3" width="10" height="9"/><rect x="20" y="3" width="10" height="9"/><rect x="36" y="3" width="10" height="9"/><rect x="52" y="3" width="10" height="9"/><rect x="68" y="3" width="10" height="9"/><rect x="84" y="3" width="10" height="9"/><rect x="100" y="3" width="10" height="9"/><rect x="116" y="3" width="10" height="9"/><rect x="132" y="3" width="10" height="9"/><rect x="148" y="3" width="10" height="9"/><rect x="164" y="3" width="10" height="9"/><rect x="180" y="3" width="10" height="9"/><rect x="196" y="3" width="10" height="9"/><rect x="212" y="3" width="10" height="9"/><rect x="228" y="3" width="10" height="9"/><rect x="244" y="3" width="10" height="9"/>
      <rect x="4" y="88" width="10" height="9"/><rect x="20" y="88" width="10" height="9"/><rect x="36" y="88" width="10" height="9"/><rect x="52" y="88" width="10" height="9"/><rect x="68" y="88" width="10" height="9"/><rect x="84" y="88" width="10" height="9"/><rect x="100" y="88" width="10" height="9"/><rect x="116" y="88" width="10" height="9"/><rect x="132" y="88" width="10" height="9"/><rect x="148" y="88" width="10" height="9"/><rect x="164" y="88" width="10" height="9"/><rect x="180" y="88" width="10" height="9"/><rect x="196" y="88" width="10" height="9"/><rect x="212" y="88" width="10" height="9"/><rect x="228" y="88" width="10" height="9"/><rect x="244" y="88" width="10" height="9"/>
    </g>
  </g>
  <text x="492" y="966" class="txt" font-size="31">...</text>
  <g transform="translate(520,901)">
    <rect width="265" height="101" fill="#111"/>
    <rect x="8" y="15" width="122" height="69" fill="#c8d2d2"/>
    <circle cx="70" cy="44" r="18" fill="#5b3428"/><rect x="38" y="61" width="63" height="20" fill="#7aa2bb"/><rect x="43" y="52" width="55" height="15" fill="#eee"/>
    <rect x="135" y="15" width="122" height="69" fill="#121212"/>
    <circle cx="156" cy="44" r="23" fill="#f1b184"/><rect x="190" y="38" width="52" height="12" fill="#eee"/><rect x="190" y="55" width="52" height="5" fill="#eee"/>
    <g fill="#fff">
      <rect x="4" y="3" width="10" height="9"/><rect x="20" y="3" width="10" height="9"/><rect x="36" y="3" width="10" height="9"/><rect x="52" y="3" width="10" height="9"/><rect x="68" y="3" width="10" height="9"/><rect x="84" y="3" width="10" height="9"/><rect x="100" y="3" width="10" height="9"/><rect x="116" y="3" width="10" height="9"/><rect x="132" y="3" width="10" height="9"/><rect x="148" y="3" width="10" height="9"/><rect x="164" y="3" width="10" height="9"/><rect x="180" y="3" width="10" height="9"/><rect x="196" y="3" width="10" height="9"/><rect x="212" y="3" width="10" height="9"/><rect x="228" y="3" width="10" height="9"/><rect x="244" y="3" width="10" height="9"/>
      <rect x="4" y="88" width="10" height="9"/><rect x="20" y="88" width="10" height="9"/><rect x="36" y="88" width="10" height="9"/><rect x="52" y="88" width="10" height="9"/><rect x="68" y="88" width="10" height="9"/><rect x="84" y="88" width="10" height="9"/><rect x="100" y="88" width="10" height="9"/><rect x="116" y="88" width="10" height="9"/><rect x="132" y="88" width="10" height="9"/><rect x="148" y="88" width="10" height="9"/><rect x="164" y="88" width="10" height="9"/><rect x="180" y="88" width="10" height="9"/><rect x="196" y="88" width="10" height="9"/><rect x="212" y="88" width="10" height="9"/><rect x="228" y="88" width="10" height="9"/><rect x="244" y="88" width="10" height="9"/>
    </g>
  </g>
  <text x="796" y="966" class="txt" font-size="31">...</text>
  <g transform="translate(826,901)">
    <rect width="265" height="101" fill="#111"/>
    <rect x="8" y="15" width="122" height="69" fill="#b9c9cf"/>
    <path d="M10 72 L120 30" stroke="#927e31" stroke-width="9"/><path d="M18 85 L125 49" stroke="#6e8793" stroke-width="15"/>
    <rect x="135" y="15" width="122" height="69" fill="#c8d8d9"/>
    <path d="M136 70 L256 29" stroke="#a66a2a" stroke-width="10"/><path d="M142 85 L255 50" stroke="#7c999f" stroke-width="14"/>
    <g fill="#fff">
      <rect x="4" y="3" width="10" height="9"/><rect x="20" y="3" width="10" height="9"/><rect x="36" y="3" width="10" height="9"/><rect x="52" y="3" width="10" height="9"/><rect x="68" y="3" width="10" height="9"/><rect x="84" y="3" width="10" height="9"/><rect x="100" y="3" width="10" height="9"/><rect x="116" y="3" width="10" height="9"/><rect x="132" y="3" width="10" height="9"/><rect x="148" y="3" width="10" height="9"/><rect x="164" y="3" width="10" height="9"/><rect x="180" y="3" width="10" height="9"/><rect x="196" y="3" width="10" height="9"/><rect x="212" y="3" width="10" height="9"/><rect x="228" y="3" width="10" height="9"/><rect x="244" y="3" width="10" height="9"/>
      <rect x="4" y="88" width="10" height="9"/><rect x="20" y="88" width="10" height="9"/><rect x="36" y="88" width="10" height="9"/><rect x="52" y="88" width="10" height="9"/><rect x="68" y="88" width="10" height="9"/><rect x="84" y="88" width="10" height="9"/><rect x="100" y="88" width="10" height="9"/><rect x="116" y="88" width="10" height="9"/><rect x="132" y="88" width="10" height="9"/><rect x="148" y="88" width="10" height="9"/><rect x="164" y="88" width="10" height="9"/><rect x="180" y="88" width="10" height="9"/><rect x="196" y="88" width="10" height="9"/><rect x="212" y="88" width="10" height="9"/><rect x="228" y="88" width="10" height="9"/><rect x="244" y="88" width="10" height="9"/>
    </g>
  </g>
  <text x="1104" y="966" class="txt" font-size="31">...</text>
  <g transform="translate(1145,901)">
    <rect width="265" height="101" fill="#111"/>
    <rect x="8" y="15" width="122" height="69" fill="#c6d5d2"/>
    <path d="M10 70 L122 36" stroke="#6d7e6e" stroke-width="14"/><path d="M14 38 L120 38" stroke="#a54e37" stroke-width="10"/>
    <rect x="135" y="15" width="122" height="69" fill="#c9d7d9"/>
    <path d="M136 72 L235 34" stroke="#8e8050" stroke-width="12"/><circle cx="218" cy="44" r="16" fill="#6a3a2d"/><rect x="192" y="58" width="50" height="20" fill="#77a2bb"/><rect x="195" y="51" width="45" height="12" fill="#eee"/>
    <g fill="#fff">
      <rect x="4" y="3" width="10" height="9"/><rect x="20" y="3" width="10" height="9"/><rect x="36" y="3" width="10" height="9"/><rect x="52" y="3" width="10" height="9"/><rect x="68" y="3" width="10" height="9"/><rect x="84" y="3" width="10" height="9"/><rect x="100" y="3" width="10" height="9"/><rect x="116" y="3" width="10" height="9"/><rect x="132" y="3" width="10" height="9"/><rect x="148" y="3" width="10" height="9"/><rect x="164" y="3" width="10" height="9"/><rect x="180" y="3" width="10" height="9"/><rect x="196" y="3" width="10" height="9"/><rect x="212" y="3" width="10" height="9"/><rect x="228" y="3" width="10" height="9"/><rect x="244" y="3" width="10" height="9"/>
      <rect x="4" y="88" width="10" height="9"/><rect x="20" y="88" width="10" height="9"/><rect x="36" y="88" width="10" height="9"/><rect x="52" y="88" width="10" height="9"/><rect x="68" y="88" width="10" height="9"/><rect x="84" y="88" width="10" height="9"/><rect x="100" y="88" width="10" height="9"/><rect x="116" y="88" width="10" height="9"/><rect x="132" y="88" width="10" height="9"/><rect x="148" y="88" width="10" height="9"/><rect x="164" y="88" width="10" height="9"/><rect x="180" y="88" width="10" height="9"/><rect x="196" y="88" width="10" height="9"/><rect x="212" y="88" width="10" height="9"/><rect x="228" y="88" width="10" height="9"/><rect x="244" y="88" width="10" height="9"/>
    </g>
  </g>
</svg>