<?xml version="1.0" encoding="UTF-8"?>
<svg xmlns="http://www.w3.org/2000/svg" width="1600" height="908" viewBox="0 0 1600 908">
  <defs>
    <linearGradient id="grad_blue_distribution" x1="995" y1="0" x2="1148" y2="0" gradientUnits="userSpaceOnUse">
      <stop offset="0" stop-color="#9ebbe8" stop-opacity="0.95" />
      <stop offset="0.45" stop-color="#d6e2f6" stop-opacity="0.75" />
      <stop offset="1" stop-color="#ffffff" stop-opacity="0.95" />
    </linearGradient>

    <radialGradient id="grad_orange_distribution_left" cx="77%" cy="45%" r="78%">
      <stop offset="0" stop-color="#ffffff" stop-opacity="1" />
      <stop offset="0.56" stop-color="#fff4eb" stop-opacity="0.96" />
      <stop offset="1" stop-color="#f99a50" stop-opacity="0.95" />
    </radialGradient>

    <radialGradient id="grad_orange_distribution_right" cx="54%" cy="44%" r="76%">
      <stop offset="0" stop-color="#ffffff" stop-opacity="1" />
      <stop offset="0.57" stop-color="#fff1e6" stop-opacity="0.96" />
      <stop offset="1" stop-color="#f99a50" stop-opacity="0.95" />
    </radialGradient>

    <marker id="arrow_head_gray" markerWidth="22" markerHeight="22" refX="20" refY="11" orient="auto" markerUnits="userSpaceOnUse">
      <path d="M 1 1 L 21 11 L 1 21 L 6 11 Z" fill="#8b8b8b" stroke="#000000" stroke-width="1.8" />
    </marker>
  </defs>

  <rect x="0" y="0" width="1600" height="908" fill="#ffffff" />

  
  <path d="M 10 309 H 410 V 590            C 333 589 286 607 226 633            C 148 666 78 657 10 636            Z" fill="#d9d9d9" stroke="#aaaaaa" stroke-width="2" />

  <text x="23" y="344" font-family="Arial, Helvetica, sans-serif" font-size="25" fill="#000000">
    <tspan x="23" dy="0">Translate the following text from</tspan>
    <tspan x="23" dy="33">English into Chinese.</tspan>
    <tspan x="23" dy="66">English: Amsterdam is famous for</tspan>
    <tspan x="23" dy="33">its hundreds of beautiful canals,</tspan>
    <tspan x="23" dy="33">millions of bicycles, stunning</tspan>
    <tspan x="23" dy="33">summers, and disgusting winters.</tspan>
    <tspan x="23" dy="66">Chinese:</tspan>
  </text>

  
  <line x1="449" y1="307" x2="503" y2="253" stroke="#000000" stroke-width="18" stroke-linecap="butt" />
  <line x1="449" y1="307" x2="503" y2="253" stroke="#8b8b8b" stroke-width="14" stroke-linecap="butt" marker-end="url(#arrow_head_gray)" />

  <line x1="451" y1="611" x2="504" y2="664" stroke="#000000" stroke-width="18" stroke-linecap="butt" />
  <line x1="451" y1="611" x2="504" y2="664" stroke="#8b8b8b" stroke-width="14" stroke-linecap="butt" marker-end="url(#arrow_head_gray)" />

  
  <rect x="542" y="165" width="192" height="94" rx="15" ry="15" fill="#eeeeee" stroke="#000000" stroke-width="3" />
  <text x="638" y="221" font-family="Arial, Helvetica, sans-serif" font-size="30" font-weight="700" text-anchor="middle" fill="#000000">NMT</text>

  <rect x="542" y="670" width="192" height="93" rx="15" ry="15" fill="#cfe7c1" stroke="#000000" stroke-width="3" />
  <text x="638" y="727" font-family="Arial, Helvetica, sans-serif" font-size="30" font-weight="700" text-anchor="middle" fill="#000000">NMT</text>
  <text x="710" y="755" font-family="Arial, Helvetica, sans-serif" font-size="21" fill="#000000">θ</text>

  
  <text x="798" y="180" font-family="Arial, Helvetica, sans-serif" font-size="24" fill="#000000">Sampling</text>
  <polygon points="811,201 869,201 869,193 885,208 869,223 869,215 811,215" fill="#8b8b8b" stroke="#000000" stroke-width="2" />

  <text x="798" y="678" font-family="Arial, Helvetica, sans-serif" font-size="24" fill="#000000">Sampling</text>
  <polygon points="811,697 869,697 869,689 885,704 869,719 869,711 811,711" fill="#8b8b8b" stroke="#000000" stroke-width="2" />

  
  <text x="1084" y="39" font-family="Arial, Helvetica, sans-serif" font-size="31" fill="#000000">Testing Time Optimization</text>

  
  <path d="M 995 51            C 1038 71 1104 101 1133 129            C 1162 157 1130 176 1069 196            C 1023 211 1023 232 1058 264            C 1094 297 1093 311 1060 329            C 1040 340 1018 351 995 364            Z" fill="url(#grad_blue_distribution)" stroke="none" />
  <line x1="995" y1="51" x2="995" y2="364" stroke="#9ebbe8" stroke-width="1" />
  <path d="M 995 51            C 1038 71 1104 101 1133 129            C 1162 157 1130 176 1069 196            C 1023 211 1023 232 1058 264            C 1094 297 1093 311 1060 329            C 1040 340 1018 351 995 364" fill="none" stroke="#00224d" stroke-width="2" stroke-dasharray="7 6" />

  <text x="1094" y="369" font-family="Times New Roman, Times, serif" font-size="26" font-weight="700" fill="#000000">Quality</text>

  
  <text x="1155" y="186" font-family="Arial, Helvetica, sans-serif" font-size="25" font-weight="700" fill="#4b7f34">Reranking / Voting</text>
  <polygon points="1222,201 1280,201 1280,193 1296,208 1280,223 1280,215 1222,215" fill="#8b8b8b" stroke="#000000" stroke-width="2" />
  <rect x="1397" y="159" width="193" height="88" fill="#f8f8f8" stroke="#000000" stroke-width="2" />
  <text x="1494" y="196" font-family="Arial, Helvetica, sans-serif" font-size="22" text-anchor="middle" fill="#000000">
    <tspan x="1494" dy="0">Highest-scoring</tspan>
    <tspan x="1494" dy="30">Output</tspan>
  </text>

  
  <line x1="478" y1="459" x2="1586" y2="459" stroke="#000000" stroke-width="3" stroke-dasharray="21 8 4 8" />

  
  <text x="1078" y="507" font-family="Arial, Helvetica, sans-serif" font-size="31" fill="#000000">Training Time Optimization</text>

  
  <path d="M 995 560            C 1033 580 1056 606 1051 641            C 1048 667 1019 699 1006 729            C 991 762 1035 770 1077 781            C 1127 794 1151 808 1139 824            C 1126 842 1044 859 995 874            Z" fill="url(#grad_orange_distribution_left)" stroke="none" />
  <line x1="995" y1="560" x2="995" y2="874" stroke="#f99a50" stroke-width="1" />
  <path d="M 995 560            C 1033 580 1056 606 1051 641            C 1048 667 1019 699 1006 729            C 991 762 1035 770 1077 781            C 1127 794 1151 808 1139 824            C 1126 842 1044 859 995 874" fill="none" stroke="#00224d" stroke-width="2" stroke-dasharray="7 6" />

  <text x="1085" y="901" font-family="Times New Roman, Times, serif" font-size="26" font-weight="700" fill="#000000">Likelihood</text>

  
  <text x="1199" y="678" font-family="Arial, Helvetica, sans-serif" font-size="25" font-weight="700" fill="#ff0000">Calibration</text>
  <polygon points="1224,697 1282,697 1282,689 1298,704 1282,719 1282,711 1224,711" fill="#8b8b8b" stroke="#000000" stroke-width="2" />

  
  <path d="M 1398 555            C 1448 578 1516 604 1540 635            C 1568 672 1491 686 1448 707            C 1422 720 1436 740 1461 763            C 1492 793 1499 810 1473 829            C 1451 845 1417 858 1398 867            Z" fill="url(#grad_orange_distribution_right)" stroke="none" />
  <line x1="1398" y1="555" x2="1398" y2="867" stroke="#f99a50" stroke-width="1" />
  <path d="M 1398 555            C 1448 578 1516 604 1540 635            C 1568 672 1491 686 1448 707            C 1422 720 1436 740 1461 763            C 1492 793 1499 810 1473 829            C 1451 845 1417 858 1398 867" fill="none" stroke="#00224d" stroke-width="2" stroke-dasharray="7 6" />

  <text x="1425" y="901" font-family="Times New Roman, Times, serif" font-size="26" font-weight="700" fill="#000000">Likelihood -&gt; Quality</text>
</svg>