<?xml version="1.0" encoding="UTF-8"?>
<svg xmlns="http://www.w3.org/2000/svg" viewBox="0 0 105 56">
  <g stroke="#19110d" stroke-width="1.6" stroke-linecap="round" stroke-linejoin="round">
    <path d="M20.8 3.3 21.2 20.9 7.2 14.2M21.2 20.9 38.4 7.1 38.1 21.9M21.2 20.9 5.2 27.4M5.2 14.2 5.2 39.1M5.2 27.4 5.2 39.1M21.2 20.9 21.5 34.9 36.6 38M21.5 34.9 5.2 39.1" fill="none" />
    <circle cx="21.2" cy="20.9" r="7.1" fill="#ff9800" />
    <circle cx="20.8" cy="3.3" r="3.1" fill="#f05a24" />
    <circle cx="7.2" cy="14.2" r="3.1" fill="#f05a24" />
    <circle cx="38.4" cy="7.1" r="3.1" fill="#f05a24" />
    <circle cx="38.1" cy="21.9" r="3.1" fill="#f05a24" />
    <circle cx="5.2" cy="27.4" r="3.1" fill="#f05a24" />
    <circle cx="5.2" cy="39.1" r="3.1" fill="#f05a24" />
    <circle cx="21.5" cy="34.9" r="3.1" fill="#f05a24" />
    <circle cx="36.6" cy="38" r="3.1" fill="#f05a24" />
  </g>
  <g fill="none" stroke-linecap="round" stroke-linejoin="round">
    <g stroke="#cc4c87" stroke-width="2">
      <path d="M77.2 12.1c-1.1-4 2.1-6.6 5.8-4.6 1.5-4.2 7.1-4.4 8.8-.2 4-.8 6.6 2.8 4.8 6.3 4.1.9 4.8 5.7 1.5 8 3.1 2.9 2.2 8.2-2.1 9.4-.6 4.7-6.6 6.8-10 3.4-3 3.6-9.3 2.3-10.4-2.4-4.4.9-8.5-2.3-8.1-6.8-4.3-1.3-4.7-6.8-.8-8.8-.3-4.4 5.1-6.8 8.3-4.1" />
      <path d="M79.4 7.4V3.1h5.2M90.2 7.3l3.8-3.6M73.3 10.2l-4.9-3.6M64.8 17.8l-5.3.1" />
      <path d="M76.3 13.6c3.7.6 5.2 4 2.7 6.7M84.2 8.2c-.9 3.5 2 5.8 5.7 4.8M94.1 14.8c-3.5.9-4.5 4.6-1.8 7.1M69 17.5c3.9.1 5.8 3.3 3.8 6.7M76.2 25c3.1-3.3 8.3-3.1 11 .3M88.1 18.9c-2.4 1.3-3.4 3.4-2.8 6.1M72.7 31.5c2.6-.8 5.3.5 6.8 3.3" />
      <path d="M91.8 25.2c4.7 1.7 5.1 7.9 1 10.4M85.6 34.5c-1.1-2.9.1-5.5 3-6.8" />
    </g>
    <g stroke="#d98f32" stroke-width="2">
      <path d="M86.1 19.9c-6.7-.9-12.6 3.6-13 9.6-.5 7.2 6 11.7 12.5 10.2 6.1-1.4 10.4-6.9 9.1-12.6-.9-4-4.4-6.5-8.6-7.2z" />
      <path d="M87.6 25.9c-4.1-2.1-9 .4-9.1 4.3-.1 4.8 5.8 6.4 9.2 3.4 3.2-2.8 1.6-6.6-2.5-6.2" />
      <path d="M75.8 35.6c3.2-2.1 6.8-1.3 9.2 2.3" />
    </g>
  </g>
</svg>